<svg xmlns="http://www.w3.org/2000/svg" fill="none" height="1024" width="1024"><g clip-path="url(#a)"><ellipse fill="url(#b)" ry="127.5" rx="467" cy="762.5" cx="506"/><path fill="url(#c)" d="M230.457 615.502s-.224-.58-.529.04c-2.744 5.58-27.594 66.024-29.566 112.676 0 0-4.147 26.802 30.603 26.447 29.008-.295 28.235-25.003 28.134-33.328-.397-33.764-28.642-105.835-28.642-105.835Z"/><path fill="url(#d)" d="M229.664 784.343a1.02 1.02 0 0 1-1.017-1.016V631.754a1.02 1.02 0 0 1 1.017-1.017 1.02 1.02 0 0 1 1.016 1.017v151.573c0 .569-.457 1.016-1.016 1.016Z"/><path fill="url(#e)" d="M869.35 810.661c7.191-2.261 14.167-5.215 20.524-13.485 1.304-1.694 2.53-3.865 1.815-5.893-.538-1.526-2.095-2.505-3.676-2.754a7.511 7.511 0 0 0-1.779-.049h-.006c-.912.094-1.813.274-2.692.535l-.251.074a44.021 44.021 0 0 0-11.86 5.435 1.734 1.734 0 0 1-1.119.268 1.737 1.737 0 0 1-1.04-.496 1.792 1.792 0 0 1-.273-2.185c.374-.62.81-1.2 1.299-1.731a16.87 16.87 0 0 1 2.365-2.081c1.131-.837 2.337-1.584 3.517-2.348a97.489 97.489 0 0 0 12.431-9.531c2.773-2.507 5.486-5.289 6.804-8.813.606-1.621.882-3.49.159-5.06-1.192-2.579-4.569-3.302-7.331-2.767-4.839.941-8.705 4.54-12.133 8.128-2.843 2.981-6.029 6.281-10.114 6.464a3.526 3.526 0 0 1-2.013-.409c-1.165-.716-1.465-2.375-1.05-3.692.416-1.318 1.377-2.37 2.304-3.381 5.392-5.869 10.697-11.974 14.198-19.165 3.501-7.191 5.052-15.681 2.619-23.316-.713-2.232-1.785-4.404-3.457-6.026-1.672-1.621-4.016-2.638-6.311-2.327-3.127.417-5.482 3.094-7.067 5.859-5.445 9.486-5.112 21.11-6.646 31.976-.429 3.042-1.053 6.162-2.839 8.666a2.028 2.028 0 0 1-.627.593c-1.469.863-2.788-.878-3.34-2.355-2.178-5.845-2.723-12.53-6.622-17.368-1.489-1.842-3.595-3.381-5.942-3.366-2.866.02-5.32 2.449-6.157 5.231-.836 2.782-.335 5.804.561 8.566 1.663 5.122 4.644 9.724 8.158 13.769 1.851 2.136 3.946 4.293 4.502 7.079.17.947.099 1.922-.207 2.833a5.655 5.655 0 0 1-1.541 2.373 3.216 3.216 0 0 1-2.415.801c-.941-.087-1.792-.574-2.614-1.047-.345-.199-.69-.401-1.037-.599l-4.111-2.377c-3.485-2.016-7.69-4.076-11.318-2.34-1.851.888-3.064 2.633-3.635 4.636a10.282 10.282 0 0 0 0 5.562c1.081 3.78 7.893 14.3 10.703 17.013 3.282 3.168 14.662 16.837 39.264 9.1Z"/><path fill="url(#f)" d="M746 643H280v47h.448c7.517 16.741 108.76 30 232.552 30 123.792 0 225.035-13.259 232.552-30H746v-47Z" clip-rule="evenodd" fill-rule="evenodd"/><ellipse fill="url(#g)" ry="32" rx="233" cy="643" cx="513"/><ellipse fill="url(#h)" ry="32" rx="233" cy="643" cx="513"/><path fill="#6CB8FF" d="M715.33 659.88C675.169 669.511 599.602 676 513 676c-85.807 0-160.781-6.37-201.216-15.855C317.678 642.782 405.783 629 513.605 629c107.275 0 195.032 13.643 201.725 30.88Z" clip-rule="evenodd" fill-rule="evenodd"/><path stroke-dasharray="2 2" stroke-width="2" stroke="url(#i)" d="M675 291c-16.667-12.333-97.4-32.801-141 23.999-54.5 71-110.5 142.501-221.5 99.001"/><path fill="url(#j)" d="M646.597 347.584 512.477 305l-134.075 42.584A12.025 12.025 0 0 0 370 359.171v169.495c.269 1.151 6.591 29.053 34.005 56.071 21.09 20.782 71.681 47.495 93.748 59.078 3.446 1.815 5.086 2.478 6.543 3.271l6.546 3.271c1.724.928 4.821.887 6.546 0l6.545-3.271c12.91-6.322 72.651-38.337 97.017-62.349 27.461-27.018 33.784-54.92 34.048-56.071V359.171c.086-5.305-3.36-9.996-8.401-11.587Zm-132.44 276.507-.089-.044h.22c-.086.044-.131.044-.131.044Zm31.97-98.476h-21.668v30.513c0 7.075-5.749 12.824-12.824 12.824s-12.824-5.749-12.824-12.824v-78.712c0-.265.045-.484.045-.708-2.343-.708-4.687-1.55-7.03-2.608-7.914-3.625-14.679-10.126-19.191-17.51-4.687-7.694-7.165-17.336-6.412-26.356.883-10.301 4.597-19.28 11.188-27.283 11.408-13.841 32.369-19.455 49.171-13.311 9.508 3.494 17.246 9.332 23.085 17.555 5.13 7.209 7.738 16.184 7.961 24.984 0 .265.045.484 0 .753 0 .309 0 .618-.044.927-.619 19.545-14.061 37.983-33.166 43.073v22.506h21.668c7.075 0 12.824 5.749 12.824 12.824v.529h.045c-.004 7.075-5.753 12.824-12.828 12.824Z"/><path fill="url(#k)" d="M527.247 444.561c.131-.22.265-.399.309-.444a35.887 35.887 0 0 0 2.079-3.629 37.957 37.957 0 0 0 1.371-4.996c.045-.838.09-1.725.134-2.567 0-.842-.044-1.725-.134-2.563-.309-1.68-.797-3.36-1.371-4.996a40.166 40.166 0 0 0-1.68-3.051c-.134-.134-.443-.574-.972-1.416-.485-.533-.973-1.107-1.502-1.591a26.576 26.576 0 0 0-1.989-1.814 3.33 3.33 0 0 1-.444-.31 36.01 36.01 0 0 0-3.625-2.078 39.142 39.142 0 0 0-4.951-1.371 34.121 34.121 0 0 0-5.175 0c-1.68.309-3.361.797-4.951 1.371a40.38 40.38 0 0 0-3.052 1.68c-.134.134-.574.443-1.416.972-.532.485-1.106.973-1.59 1.502a26.586 26.586 0 0 0-1.815 1.989c-.13.22-.264.399-.309.444a36.213 36.213 0 0 0-2.079 3.625 39.31 39.31 0 0 0-1.371 4.951c-.13 1.725-.13 3.45 0 5.175.309 1.68.797 3.36 1.371 4.951a40.61 40.61 0 0 0 1.68 3.052c.134.134.444.573.973 1.415.484.533.972 1.107 1.501 1.591a26.802 26.802 0 0 0 1.99 1.815c.219.13.398.264.443.309a36.49 36.49 0 0 0 3.625 2.079 39.357 39.357 0 0 0 4.951 1.371 33.36 33.36 0 0 0 5.175 0c1.681-.309 3.361-.797 4.952-1.371a40.59 40.59 0 0 0 3.051-1.68c.134-.135.574-.444 1.416-.973a12.384 12.384 0 0 0 1.591-1.46 24.026 24.026 0 0 0 1.814-1.982Z"/><path fill="url(#l)" d="m283.628 300.721 4.358-1.913c2.438-1.071 5.275.035 6.323 2.422l15.419 35.123c1.047 2.387-.059 5.224-2.497 6.294l-48.145 21.135c-2.387 1.048-5.224-.058-6.271-2.444l-15.419-35.124c-1.048-2.386.058-5.223 2.445-6.271l4.358-1.913-3.849-8.768c-4.829-10.998.09-23.615 11.037-28.421 10.952-4.808 23.564.114 28.392 11.112l3.849 8.768Zm-32.841 14.417 26.252-11.525-3.849-8.767a14.39 14.39 0 0 0-18.911-7.416c-7.211 3.166-10.529 11.677-7.341 18.94l3.849 8.768Zm22.937 25.469a9 9 0 1 0 0-18 9 9 0 0 0 0 18Z" clip-rule="evenodd" fill-rule="evenodd"/><path fill="url(#m)" d="m635.846 560.625-18.771 2.96 3.006 19.063 18.771-2.96-3.006-19.063Z"/><path fill="url(#n)" d="M633.163 567.203c10.11-2.813 15.674-14.553 12.427-26.221s-14.076-18.846-24.186-16.033c-10.111 2.814-15.675 14.554-12.428 26.222 3.247 11.668 14.076 18.846 24.187 16.032Z"/><path fill="url(#o)" d="M596.218 518.201c3.422-.952 6.937.105 9.316 2.467 5.55-3.823 13.81-6.677 24.845-3.02 1.702.723 3.282 1.574 4.66 2.59 7.048 4.201 9.375 13.843 8.75 15.046-.289.555-1.861 1.314-4.145 2.416-3.837 1.852-9.683 4.674-14.829 9.13-1.193 1.125-2.265 2.145-3.132 3.038l-.001.001-.002-.003-.029-.018a8.515 8.515 0 0 0-.188.248c-.158-.091-.349-.21-.567-.347-2.081-1.304-6.662-4.177-8.849 1.553-.759 7.284 5.852 9.506 8.06 8.073-.103 2.953-2.963 4.796-2.963 4.796.015-.014-.018-.002-.095.026-.636.234-4.313 1.584-9.603-1.218-7.121-4.06-13.215-9.601-12.858-26.687a9.788 9.788 0 0 1-5.003-6.128c-1.443-5.186 1.526-10.542 6.633-11.963Z" clip-rule="evenodd" fill-rule="evenodd"/><path fill="#FEE4C3" d="m695.672 756.005 8.038-.47.627 10.718-8.039.47z"/><path fill="#4F538F" d="M714.921 770.851c-.451 3.678-4.933 3.45-10.818 2.728-5.886-.722-12.175-1.494-13.017-5.654.04.182-1.005-2.827 3.481-6.333 0 0 3.669 3.155 9.325 1.144 5.073 1.661 11.365 5.375 11.029 8.115Z"/><path fill="#FEE4C3" d="m721.521 741.269 8.04-.434.579 10.72-8.04.434z"/><path fill="#4F538F" d="M742.095 757.51c-.5 3.672-4.978 3.385-10.853 2.585-5.876-.8-12.155-1.655-12.941-5.825.037.183-.968-2.841 3.564-6.287 0 0 3.627 3.203 9.309 1.268 5.05 1.727 11.293 5.523 10.921 8.259Z"/><path fill="#C7DCFF" d="M627.4 663.433s5.883 21.702 71.18 20.591c0 0 3.639 24.865 20.172 58.758l11.733 1.554-10.502-65.666a16.867 16.867 0 0 0-3.387-7.769 16.933 16.933 0 0 0-6.742-5.153c-12.52-5.245-52.637-11.981-52.637-11.981l-29.817 9.666Z"/><path fill="#D1E2FF" d="M618.182 661.873s-1.449 30.557 64.945 36.107c0 0 0 26.23 11.395 61.58l10.827.585 1.09-66.499a16.947 16.947 0 0 0-7.649-14.585c-11.325-7.42-49.577-21.342-49.577-21.342l-31.031 4.154Z"/><path fill="url(#p)" d="M704.357 641.262c-.885 2.87-3.94 2.412-8.689 1.439-4.748-.973-9.591-2.758-8.892-6.168.698-3.409 5.859-5.508 10.608-4.535 10.298-3.531 16.023 6.406 6.973 9.264Z"/><path fill="url(#q)" d="M588.095 674.104c2.85.948 4.253-1.805 6.221-6.235 1.967-4.43 3.329-9.408.148-10.821-3.181-1.413-7.888 1.567-9.856 5.998-8.857 6.329-4.097 16.762 3.487 11.058Z"/><path fill="url(#r)" d="M636.999 571.641s9.72 1.894 14.602 7.552c8.044 9.327 14.608 26.45 14.608 26.45s1.186 5.344 6.622 12.307c5.915 7.574 7.728 8.345 7.728 8.345s7.193 3.239 9.014 3.321c2.222.101 7.649 1.486 7.649 1.486l-1.714 10.933s-14.331 1.05-24.966-1.717c-7.945-2.07-12.289-10.34-12.289-10.34l-21.254-58.337Z" clip-rule="evenodd" fill-rule="evenodd"/><path fill="url(#s)" d="M637.128 570.443c-6.09 9.647-15.06 5.086-18.783 1.6-.442.07-3.471 2.12-6.914 7.876-5.378 8.992 1.896 60.79 5.638 87.352 20.622-1.437 61.125-5.551 58.165-10.515-3.699-6.206-13.256-49.499-16.675-62.536-1.361-5.189-10.19-21.474-21.431-23.777Z"/><path fill="url(#t)" d="M596.674 590.489c1.719-6.296 11.64-12.516 18.803-16.091 1.343 2.682 2.686 20.114-1.343 26.819-4.03 6.704-5.373 32.183-6.716 34.864-.961 1.92-6.716 21.456-12.087 29.501-1.344-.445-6.446-2.676-10.745-2.676 0-2.682 4.029-24.143 6.715-29.506 1.802-3.599 1.344-28.16 5.373-42.911Z"/><path fill="#5B7EFB" d="M640.071 571.421s-1.535-1.116-2.861-.907c-6.015 8.267-14.885 4.58-18.768 1.601-.146-.117-1.326.208-2.442 1.743 13.338 8.766 21.605 2.028 24.071-2.437Z"/><path fill="url(#u)" d="m735.974 316.639-42.511 8.794c-.534.107-1.035-.024-1.492-.381a1.775 1.775 0 0 1-.521-.725 1.871 1.871 0 0 1-.11-.674l.237-12.485a1.563 1.563 0 0 0-1.071-1.511l-9.018-2.964c-.522-.159-.884-.512-1.09-1.044a1.622 1.622 0 0 1-.119-.619 1.74 1.74 0 0 1 .304-1.028c.209-.311.483-.537.833-.673l8.031-3.106a3.132 3.132 0 0 1 2.097-.058l35.171 11.468-34.382-18.263a.78.78 0 0 1-.414-.703l.226-11.418c-.007-.735.33-1.268 1.032-1.592.678-.304 1.3-.226 1.861.238l41.696 33.608c.261.203.439.448.554.744.136.35.157.703.073 1.055-.186.736-.66 1.176-1.387 1.337Z"/></g><defs><linearGradient gradientUnits="userSpaceOnUse" y2="890" x2="506" y1="635" x1="506" id="b"><stop stop-color="#BDDFFF"/><stop stop-opacity="0" stop-color="#fff" offset=".959"/></linearGradient><linearGradient gradientUnits="userSpaceOnUse" y2="615.257" x2="229.66" y1="754.678" x1="229.66" id="c"><stop stop-color="#5FB2FF"/><stop stop-color="#DFF0FF" offset=".789"/></linearGradient><linearGradient gradientUnits="userSpaceOnUse" y2="784.347" x2="229.661" y1="630.738" x1="229.661" id="d"><stop stop-color="#DFF0FF"/><stop stop-color="#A2D2FF" offset=".818"/></linearGradient><linearGradient gradientUnits="userSpaceOnUse" y2="802.968" x2="847.534" y1="720.042" x1="883.842" id="e"><stop stop-color="#C4E3FF" offset=".365"/><stop stop-color="#5FB2FF" offset="1"/></linearGradient><linearGradient gradientUnits="userSpaceOnUse" y2="792.448" x2="593.828" y1="636" x1="647.958" id="f"><stop stop-color="#C9E7FF"/><stop stop-color="#B0D9FF" offset="1"/></linearGradient><linearGradient gradientUnits="userSpaceOnUse" y2="680.259" x2="608.662" y1="614.27" x1="615.783" id="g"><stop stop-color="#6CB8FF"/><stop stop-color="#8FC8FF" offset=".657"/></linearGradient><linearGradient gradientUnits="userSpaceOnUse" y2="680.259" x2="608.662" y1="614.27" x1="615.783" id="h"><stop stop-color="#6CB8FF"/><stop stop-color="#8FC8FF" offset=".657"/></linearGradient><linearGradient gradientUnits="userSpaceOnUse" y2="435.33" x2="505.705" y1="279.247" x1="547.404" id="i"><stop stop-color="#8DAFCE"/><stop stop-color="#ABD6FF" offset=".657"/></linearGradient><linearGradient gradientUnits="userSpaceOnUse" y2="526.331" x2="352.018" y1="322.681" x1="575.361" id="j"><stop stop-color="#86C4FF" offset=".193"/><stop stop-color="#B1D9FF" offset=".777"/></linearGradient><linearGradient gradientUnits="userSpaceOnUse" y2="447.074" x2="502.819" y1="415.603" x1="520.375" id="k"><stop stop-color="#6CB8FF"/><stop stop-color="#8FC8FF" offset=".657"/></linearGradient><linearGradient gradientUnits="userSpaceOnUse" y2="347.522" x2="247.953" y1="283.352" x1="289.69" id="l"><stop stop-color="#6CB8FF"/><stop stop-color="#8FC8FF" offset=".657"/></linearGradient><linearGradient gradientUnits="userSpaceOnUse" y2="581.168" x2="629.467" y1="564.569" x1="626.849" id="m"><stop stop-color="#FFCDA5"/><stop stop-color="#FFE8D1" offset="1"/></linearGradient><linearGradient gradientUnits="userSpaceOnUse" y2="559.693" x2="651.068" y1="525.732" x1="618.59" id="n"><stop stop-color="#FFF2DF"/><stop stop-color="#FEE0BC" offset="1"/></linearGradient><linearGradient gradientUnits="userSpaceOnUse" y2="560.927" x2="603.531" y1="524.128" x1="631.431" id="o"><stop stop-color="#9F4326"/><stop stop-color="#574915" offset="1"/></linearGradient><linearGradient gradientUnits="userSpaceOnUse" y2="642.884" x2="696.563" y1="630.518" x1="699.096" id="p"><stop stop-color="#FEE4C3"/><stop stop-color="#FFD1AC" offset="1"/></linearGradient><linearGradient gradientUnits="userSpaceOnUse" y2="668.703" x2="593.945" y1="663.58" x1="582.409" id="q"><stop stop-color="#FEE4C3"/><stop stop-color="#FFD1AC" offset="1"/></linearGradient><linearGradient gradientUnits="userSpaceOnUse" y2="570.212" x2="646.297" y1="660.61" x1="632.555" id="r"><stop stop-color="#68F" offset=".04"/><stop stop-color="#F094FF" offset="1"/></linearGradient><linearGradient gradientUnits="userSpaceOnUse" y2="570.212" x2="646.297" y1="660.61" x1="632.555" id="s"><stop stop-color="#68F" offset=".04"/><stop stop-color="#F094FF" offset="1"/></linearGradient><linearGradient gradientUnits="userSpaceOnUse" y2="570.212" x2="646.297" y1="660.61" x1="632.555" id="t"><stop stop-color="#68F" offset=".04"/><stop stop-color="#F094FF" offset="1"/></linearGradient><linearGradient gradientUnits="userSpaceOnUse" y2="297.282" x2="684.21" y1="303.81" x1="730.514" id="u"><stop stop-color="#6CB8FF"/><stop stop-color="#8FC8FF" offset=".657"/></linearGradient><clipPath id="a"><path fill="#fff" d="M0 0h1024v1024H0z"/></clipPath></defs></svg>