<svg xmlns="http://www.w3.org/2000/svg" fill="none" height="1024" width="1024"><g clip-path="url(#a)"><ellipse fill="url(#b)" ry="127.5" rx="467" cy="762.5" cx="506"/><path fill="url(#c)" d="M230.457 615.502s-.224-.58-.529.04c-2.744 5.58-27.594 66.024-29.566 112.676 0 0-4.147 26.802 30.603 26.447 29.008-.295 28.235-25.003 28.134-33.328-.397-33.764-28.642-105.835-28.642-105.835Z"/><path fill="url(#d)" d="M229.664 784.343a1.02 1.02 0 0 1-1.017-1.016V631.754a1.02 1.02 0 0 1 1.017-1.017 1.02 1.02 0 0 1 1.016 1.017v151.573c0 .569-.457 1.016-1.016 1.016Z"/><path fill="url(#e)" d="M869.35 810.661c7.191-2.261 14.167-5.215 20.524-13.485 1.304-1.694 2.53-3.865 1.815-5.893-.538-1.526-2.095-2.505-3.676-2.754a7.511 7.511 0 0 0-1.779-.049h-.006c-.912.094-1.813.274-2.692.535l-.251.074a44.021 44.021 0 0 0-11.86 5.435 1.734 1.734 0 0 1-1.119.268 1.737 1.737 0 0 1-1.04-.496 1.792 1.792 0 0 1-.273-2.185c.374-.62.81-1.2 1.299-1.731a16.87 16.87 0 0 1 2.365-2.081c1.131-.837 2.337-1.584 3.517-2.348a97.489 97.489 0 0 0 12.431-9.531c2.773-2.507 5.486-5.289 6.804-8.813.606-1.621.882-3.49.159-5.06-1.192-2.579-4.569-3.302-7.331-2.767-4.839.941-8.705 4.54-12.133 8.128-2.843 2.981-6.029 6.281-10.114 6.464a3.526 3.526 0 0 1-2.013-.409c-1.165-.716-1.465-2.375-1.05-3.692.416-1.318 1.377-2.37 2.304-3.381 5.392-5.869 10.697-11.974 14.198-19.165 3.501-7.191 5.052-15.681 2.619-23.316-.713-2.232-1.785-4.404-3.457-6.026-1.672-1.621-4.016-2.638-6.311-2.327-3.127.417-5.482 3.094-7.067 5.859-5.445 9.486-5.112 21.11-6.646 31.976-.429 3.042-1.053 6.162-2.839 8.666a2.028 2.028 0 0 1-.627.593c-1.469.863-2.788-.878-3.34-2.355-2.178-5.845-2.723-12.53-6.622-17.368-1.489-1.842-3.595-3.381-5.942-3.366-2.866.02-5.32 2.449-6.157 5.231-.836 2.782-.335 5.804.561 8.566 1.663 5.122 4.644 9.724 8.158 13.769 1.851 2.136 3.946 4.293 4.502 7.079.17.947.099 1.922-.207 2.833a5.655 5.655 0 0 1-1.541 2.373 3.216 3.216 0 0 1-2.415.801c-.941-.087-1.792-.574-2.614-1.047-.345-.199-.69-.401-1.037-.599l-4.111-2.377c-3.485-2.016-7.69-4.076-11.318-2.34-1.851.888-3.064 2.633-3.635 4.636a10.282 10.282 0 0 0 0 5.562c1.081 3.78 7.893 14.3 10.703 17.013 3.282 3.168 14.662 16.837 39.264 9.1Z"/><path fill="url(#f)" d="m371.209 332.673 10.681 36.218-23.326 6.879 13.216 44.812-47.268 13.94-13.523-44.721-87.475 25.798-9.504-32.228 18.921-153.043 45.654 3.217-15.722 131.081 38.059-11.224-9.265-50.648 41.742-12.31 14.483 49.108 23.327-6.879Z"/><path fill="url(#g)" d="M549.48 211.652c25.963 5.074 43.886 18.467 53.772 40.18 10.095 21.753 11.644 50.531 4.646 86.334-6.956 35.593-19.226 61.671-36.809 78.232-17.374 16.603-39.041 22.367-65.004 17.293-25.962-5.074-43.97-18.593-54.024-40.555-9.844-21.922-11.289-50.68-4.332-86.273 6.997-35.803 19.162-61.901 36.495-78.294 17.542-16.352 39.294-21.991 65.256-16.917Zm-7.181 36.745c-7.119-1.392-13.222-.193-18.309 3.594-5.088 3.788-9.722 10.816-13.903 21.085-3.971 10.31-7.798 24.886-11.481 43.73-3.683 18.843-5.646 33.893-5.889 45.149.007 11.087 1.654 19.343 4.941 24.767 3.287 5.425 8.49 8.833 15.609 10.224 7.118 1.391 13.201.298 18.248-3.281 5.087-3.787 9.617-10.836 13.588-21.146 4.222-10.478 8.194-25.244 11.918-44.296 3.724-19.053 5.582-34.123 5.575-45.211.244-11.255-1.299-19.491-4.627-24.706s-8.551-8.518-15.67-9.909Z"/><path fill="url(#h)" d="m797.958 458.097-8.548 36.78-23.689-5.506-10.576 45.507-48.001-11.156 10.265-45.58-88.832-20.647 7.607-32.727 91.865-123.859 38.144 25.292-78.262 106.323 38.65 8.983 16.89-48.639 42.39 9.853-11.591 49.87 23.688 5.506Z"/><path fill="#B8D9F6" d="m314 617.18 211.769 123.488v62.298L314 679.512V617.18Z"/><path fill="#5CA8EA" d="m332.163 645.698 135.794 79.603v10.071L332.163 655.77V645.698Zm0 20.835 135.794 79.603v10.072l-135.794-79.603V666.533Zm148.352 65.344 24.98 14.986v28.172l-24.98-14.951V731.877Z"/><path fill="#99C9F2" d="m710.275 633.688-184.506 106.98v62.297L710.275 695.19v-61.502Z"/><path fill="#E0EFFB" d="M710.275 633.688 497.365 512 314 617.179l211.769 123.246 184.506-106.737Z"/><ellipse fill-opacity=".1" fill="#7D7D7D" ry="15.5" rx="56.5" cy="795.5" cx="458.5"/><path fill="url(#i)" d="M468.2 490.866h-25.321v26.588H468.2v-26.588Z"/><path fill="url(#j)" d="M458.915 500.572c14.218 0 25.744-13.32 25.744-29.752s-11.526-29.753-25.744-29.753c-14.217 0-25.743 13.321-25.743 29.753 0 16.432 11.526 29.752 25.743 29.752Z"/><path fill="url(#k)" d="M482.208 445.056c2.26 4.276 4.191 10.275 4.191 17.817 0 1.576-.682 1.787-1.92 2.169-1.62.502-4.191 1.297-7.429 5.834a25.666 25.666 0 0 1-.615-.66c-2.242-2.459-7.18-7.875-12.119-1.187-3.638 9.237 4.918 15.721 8.322 14.651l-.025.031c-3.279 3.893-4.321 5.13-10.695 7.803 0 0-11.109 4.538-22.393-.088-3.073-.714-6.454-1.985-10.591-4.241-7.985-7.615-21.757-27.185-3.365-48.875.033-.019.136-.108.305-.253 2.745-2.351 22.962-19.674 47.663-3.085 1.441 1.149 2.771 2.365 3.943 3.655 1.061.965 2.368 2.492 3.65 4.551.391.613.75 1.241 1.078 1.878Z" clip-rule="evenodd" fill-rule="evenodd"/><path fill="#585449" d="M486.436 453.13c-13.385 8.286-16.065 10.235-32.763 21.479-25.519 17.185-28.037 15.256-34.016 5.567-10.176-19.527-2.891-40.303 14.779-49.511 17.669-9.208 41.006-5.255 52 22.465Z"/><ellipse fill="#585449" transform="rotate(-27.197 477.622 449.392)" ry="7.422" rx="28.655" cy="449.392" cx="477.622"/><path fill="#FEE4C3" d="m426.001 776.412 10.915-.098.13 14.552-10.914.098z"/><path fill="#7B7B7B" d="M451.836 790.309c.917 4.939-1.496 8.341-9.398 9.808-7.903 1.467-16.348 3.034-19.133-1.999.126.219-2.452-3.245 1.917-9.607 0 0 6.029 2.581 12.52-2.324 7.235.077 13.411.443 14.094 4.122Z"/><path fill="#FEE4C3" d="m472.516 773.625 10.915-.05.066 14.553-10.915.05z"/><path fill="#7B7B7B" d="M499.133 788.489c.894 4.943-2.376 7.475-10.284 8.907-7.909 1.432-16.361 2.962-19.123-2.084.124.22-2.438-3.256 1.959-9.598 0 0 6.018 2.608 12.53-2.269 7.235.11 14.251 1.362 14.918 5.044Z"/><path fill="#DCDCDC" d="M413.338 621.693c.816 29.804 1.822 47.985 3.645 81.447 1.822 33.462 2.803 47.586 5.766 78.078l22.022-.253 5.014-74.107c1.823-24.167 3.645-74.288 3.645-74.288s5.467 38.967 9.112 74.288c3.645 35.321 6.561 74.044 6.561 74.044l20.704-.274s3.715-29.154 3.715-77.488v-81.444l-80.184-.003Z"/><path fill="url(#l)" d="M487.287 456.03c3.412-2.22 6.196.909 10.295 6.044 4.1 5.134 7.592 11.196 3.906 14.139-3.687 2.943-10.882.65-14.982-4.485-13.785-5.263-11.122-20.576.781-15.698Z"/><path fill="url(#m)" d="M388.691 625.604c-3.835-1.366-3.036-5.477-1.44-11.85 1.595-6.374 4.296-12.827 8.872-11.682 4.576 1.146 7.117 8.258 5.521 14.631 4.178 14.153-9.613 21.324-12.953 8.901Z"/><path fill="url(#n)" d="M491.432 548.05c.107 3.076.236 6.225.424 9.412 1.225 17.153 3.275 34.923 4.483 45.393.586 5.076.973 8.436.973 9.18 0 2.221.302 3.839.536 5.1.342 1.838.543 2.917-.536 3.996-41.838 20.013-83.677 9.098-85.496 5.46-.939-1.878-.97-15.927-.248-32.806-3.876 8.958-6.066 14.51-8.796 26.162-.009-.62-5.327-5.167-16.302-3.605-2.403-7.426-2.574-12.732 3.295-37.171 5.491-22.866 21.805-58.543 33.881-68.732 9.377-7.911 13.213-8.882 20.36-4.386.457.992.822 2.016 1.104 3.068 3.346 1.686 7.79 2.864 14.001 2.864l.085-.017c4.041-.817 9.025-1.824 10.831-5.437 3.709-1.141 6.746-1.432 9.239-.993 4.746.004 9.831.97 12.591 2.81 5.457 3.638 12.729 1.823 16.369-1.817 1.82-3.638 0-7.277-3.638-10.915-3.638-3.638-14.551-16.372-14.551-20.01 0-2.91 7.277-7.276 10.915-9.095 10.308 7.882 30.925 26.195 30.925 36.382 1.775 5.325 1.818 40.101-40.445 45.157Zm-88.669 71.935a.074.074 0 0 0 .009-.038l-.009.038Z" clip-rule="evenodd" fill-rule="evenodd"/><path fill="#FB955B" d="M471.577 506.695s-1.725-1.767-3.51-1.767c-9.617 9.523-20.509 2.905-24.994-1.767-.168-.183-1.785-.001-3.57 1.766 15.71 14.143 27.908 7.072 32.074 1.768Z"/><path fill="url(#o)" d="M385.015 477.469c-3.439 2.216-5.506 4.929-6.17 8.185-.694 3.21.037 6.488 2.223 9.881l4.88-3.144c-1.318-2.045-1.918-3.895-1.8-5.55.061-1.947 1.176-3.586 3.267-4.933 1.673-1.078 3.321-1.482 4.849-1.152 1.482.361 2.756 1.316 3.804 2.943.778 1.209 1.032 2.624.885 4.232l-.221 1.392c-1.235 4.413-1.773 7.456-1.539 9.147.128 1.628.808 3.295 1.916 5.015l.509.79 4.973-3.205-.509-.79c-.719-1.115-1.145-2.288-1.233-3.547-.121-1.106-.009-2.362.395-3.674.956-3.313 1.479-5.36 1.568-6.141.203-2.236-.42-4.531-1.888-6.809-1.797-2.788-4.164-4.42-7.071-4.849-2.937-.475-5.863.292-8.838 2.209Zm16.683 27.728c-.929.599-1.586 1.417-1.817 2.487-.262 1.024-.078 2.023.551 2.999.599.93 1.433 1.51 2.503 1.742 1.07.231 2.116.017 3.046-.582.93-.599 1.557-1.463 1.818-2.486.231-1.07.094-2.1-.535-3.076s-1.463-1.557-2.503-1.742c-1.07-.231-2.087.029-3.063.658Z"/></g><defs><linearGradient gradientUnits="userSpaceOnUse" y2="890" x2="506" y1="635" x1="506" id="b"><stop stop-color="#BDDFFF"/><stop stop-opacity="0" stop-color="#fff" offset=".959"/></linearGradient><linearGradient gradientUnits="userSpaceOnUse" y2="615.257" x2="229.66" y1="754.678" x1="229.66" id="c"><stop stop-color="#5FB2FF"/><stop stop-color="#DFF0FF" offset=".789"/></linearGradient><linearGradient gradientUnits="userSpaceOnUse" y2="784.347" x2="229.661" y1="630.738" x1="229.661" id="d"><stop stop-color="#DFF0FF"/><stop stop-color="#A2D2FF" offset=".818"/></linearGradient><linearGradient gradientUnits="userSpaceOnUse" y2="802.968" x2="847.534" y1="720.042" x1="883.842" id="e"><stop stop-color="#C4E3FF" offset=".365"/><stop stop-color="#5FB2FF" offset="1"/></linearGradient><linearGradient gradientUnits="userSpaceOnUse" y2="154.407" x2="742.451" y1="62.485" x1="691.606" id="f"><stop stop-color="#6CB8FF"/><stop stop-color="#A2D2FF" offset="1"/></linearGradient><linearGradient gradientUnits="userSpaceOnUse" y2="336.299" x2="820.492" y1="231.286" x1="817.819" id="g"><stop stop-color="#6CB8FF"/><stop stop-color="#A2D2FF" offset="1"/></linearGradient><linearGradient gradientUnits="userSpaceOnUse" y2="395.285" x2="819.109" y1="290.243" x1="820.15" id="h"><stop stop-color="#6CB8FF"/><stop stop-color="#A2D2FF" offset="1"/></linearGradient><linearGradient gradientUnits="userSpaceOnUse" y2="517.454" x2="455.54" y1="494.302" x1="455.54" id="i"><stop stop-color="#FFCDA5"/><stop stop-color="#FFE8D1" offset="1"/></linearGradient><linearGradient gradientUnits="userSpaceOnUse" y2="497.231" x2="485.08" y1="441.067" x1="454.958" id="j"><stop stop-color="#FFF2DF"/><stop stop-color="#FEE0BC" offset="1"/></linearGradient><linearGradient gradientUnits="userSpaceOnUse" y2="486.775" x2="424.514" y1="447.785" x1="473.385" id="k"><stop stop-color="#777CA7"/><stop stop-color="#636681" offset="1"/></linearGradient><linearGradient gradientUnits="userSpaceOnUse" y2="461.107" x2="496.81" y1="471.782" x1="483.439" id="l"><stop stop-color="#FEE4C3"/><stop stop-color="#FFD1AC" offset="1"/></linearGradient><linearGradient gradientUnits="userSpaceOnUse" y2="614.954" x2="386.95" y1="619.109" x1="403.547" id="m"><stop stop-color="#FEE4C3"/><stop stop-color="#FFD1AC" offset="1"/></linearGradient><linearGradient gradientUnits="userSpaceOnUse" y2="643.6" x2="444.225" y1="452.554" x1="508.79" id="n"><stop stop-color="#FFE194"/><stop stop-color="#FFBF84" offset="1"/></linearGradient><linearGradient gradientUnits="userSpaceOnUse" y2="508.233" x2="385.202" y1="476.52" x1="390.285" id="o"><stop stop-color="#6CB8FF"/><stop stop-color="#8FC8FF" offset=".657"/></linearGradient><clipPath id="a"><path fill="#fff" d="M0 0h1024v1024H0z"/></clipPath></defs></svg>