<svg xmlns="http://www.w3.org/2000/svg" fill="none" height="1024" width="1024"><g clip-path="url(#a)"><ellipse fill="url(#b)" ry="127.5" rx="467" cy="762.5" cx="506"/><path fill="url(#c)" d="M230.457 615.502s-.224-.58-.529.04c-2.744 5.58-27.594 66.024-29.566 112.676 0 0-4.147 26.802 30.603 26.447 29.008-.295 28.235-25.003 28.134-33.328-.397-33.764-28.642-105.835-28.642-105.835Z"/><path fill="url(#d)" d="M229.664 784.343a1.02 1.02 0 0 1-1.017-1.016V631.754a1.02 1.02 0 0 1 1.017-1.017 1.02 1.02 0 0 1 1.016 1.017v151.573c0 .569-.457 1.016-1.016 1.016Z"/><path fill="url(#e)" d="M869.35 810.661c7.191-2.261 14.167-5.215 20.524-13.485 1.304-1.694 2.53-3.865 1.815-5.893-.538-1.526-2.095-2.505-3.676-2.754a7.511 7.511 0 0 0-1.779-.049h-.006c-.912.094-1.813.274-2.692.535l-.251.074a44.021 44.021 0 0 0-11.86 5.435 1.734 1.734 0 0 1-1.119.268 1.737 1.737 0 0 1-1.04-.496 1.792 1.792 0 0 1-.273-2.185c.374-.62.81-1.2 1.299-1.731a16.87 16.87 0 0 1 2.365-2.081c1.131-.837 2.337-1.584 3.517-2.348a97.489 97.489 0 0 0 12.431-9.531c2.773-2.507 5.486-5.289 6.804-8.813.606-1.621.882-3.49.159-5.06-1.192-2.579-4.569-3.302-7.331-2.767-4.839.941-8.705 4.54-12.133 8.128-2.843 2.981-6.029 6.281-10.114 6.464a3.526 3.526 0 0 1-2.013-.409c-1.165-.716-1.465-2.375-1.05-3.692.416-1.318 1.377-2.37 2.304-3.381 5.392-5.869 10.697-11.974 14.198-19.165 3.501-7.191 5.052-15.681 2.619-23.316-.713-2.232-1.785-4.404-3.457-6.026-1.672-1.621-4.016-2.638-6.311-2.327-3.127.417-5.482 3.094-7.067 5.859-5.445 9.486-5.112 21.11-6.646 31.976-.429 3.042-1.053 6.162-2.839 8.666a2.028 2.028 0 0 1-.627.593c-1.469.863-2.788-.878-3.34-2.355-2.178-5.845-2.723-12.53-6.622-17.368-1.489-1.842-3.595-3.381-5.942-3.366-2.866.02-5.32 2.449-6.157 5.231-.836 2.782-.335 5.804.561 8.566 1.663 5.122 4.644 9.724 8.158 13.769 1.851 2.136 3.946 4.293 4.502 7.079.17.947.099 1.922-.207 2.833a5.655 5.655 0 0 1-1.541 2.373 3.216 3.216 0 0 1-2.415.801c-.941-.087-1.792-.574-2.614-1.047-.345-.199-.69-.401-1.037-.599l-4.111-2.377c-3.485-2.016-7.69-4.076-11.318-2.34-1.851.888-3.064 2.633-3.635 4.636a10.282 10.282 0 0 0 0 5.562c1.081 3.78 7.893 14.3 10.703 17.013 3.282 3.168 14.662 16.837 39.264 9.1Z"/><path fill="url(#f)" d="M649.638 740.684c.742-2.052 1.242-4.372 1.383-7.103.076-1.443-.075-3.121-1.249-3.977-.884-.645-2.124-.596-3.098-.13-.36.176-.699.395-1.007.652l-.004.003c-.47.4-.902.845-1.29 1.326l-.112.137a29.665 29.665 0 0 0-4.507 7.56 1.168 1.168 0 0 1-1.287.699 1.215 1.215 0 0 1-.989-1.114c-.03-.488-.01-.978.059-1.461.107-.703.28-1.394.516-2.063.249-.725.547-1.437.844-2.146l.211-.506a65.766 65.766 0 0 0 3.255-10.06c.581-2.456 1.022-5.043.404-7.511-.284-1.134-.847-2.281-1.85-2.88-1.65-.981-3.804-.093-5.134 1.26-2.328 2.374-3.097 5.856-3.628 9.165-.437 2.747-.943 5.804-3.142 7.466a2.385 2.385 0 0 1-1.276.542c-.922.046-1.724-.764-1.998-1.657-.274-.892-.143-1.846-.015-2.764.747-5.33 1.356-10.758.546-16.103-.81-5.344-3.201-10.667-7.478-13.991-1.251-.972-2.679-1.772-4.229-2.037-1.551-.264-3.243.065-4.399 1.115-1.578 1.428-1.861 3.819-1.682 5.965.46 5.563 3.218 10.546 5.967 15.512.891 1.61 1.781 3.218 2.592 4.843.927 1.859 1.775 3.836 1.742 5.914.001.197-.04.391-.121.569-.485 1.043-1.885.577-2.758-.035-1.123-.79-2.184-1.695-3.243-2.598-2.194-1.871-4.38-3.736-7.091-4.548-1.533-.458-3.293-.511-4.591.394-1.585 1.107-2.018 3.398-1.417 5.267.601 1.87 2.037 3.362 3.593 4.559 2.887 2.218 6.307 3.643 9.809 4.554l.543.139c1.686.431 3.428.875 4.671 2.085.457.463.791 1.033.97 1.658.18.624.198 1.282.053 1.91a2.18 2.18 0 0 1-1.035 1.37c-.556.311-1.216.365-1.854.415l-.259.02c-.182.014-.364.027-.546.043l-3.195.246c-2.709.208-5.835.667-7.185 3.021-.689 1.202-.694 2.638-.244 3.972a6.98 6.98 0 0 0 2.131 3.099c1.291 1.067 4.547 2.763 7.429 3.981 4.063 3.519 15.751 3.485 30.059 3.444 1.576-.005 3.183-.009 4.816-.009 1.632 0 3.24.004 4.815.009 17.835.051 31.599.091 31.599-6.747 0-7.402-16.13-13.41-36.094-13.474Z" clip-rule="evenodd" fill-rule="evenodd"/><path fill="url(#g)" d="M482.769 590.289c-81.338-50.994-119.131-171.651-77.048-238.777 42.084-67.126 96.901-26.261 178.239 24.733 81.338 50.994 203.163 107.076 161.079 174.202s-180.932 90.836-262.27 39.842Z"/><path fill="#E4F2FF" d="M654.554 338.646c-4.193-4.191-4.809-10.787-1.118-15.813 4.234-5.768 12.534-7.284 18.538-3.388s7.438 11.73 3.204 17.498c-3.691 5.026-10.468 6.823-16.124 4.623l-96.638 153.958 76.064-121.177c87.149 58.117 134.809 135.027 106.717 173.288-28.583 38.929-124.761 23.108-214.82-35.338-90.059-58.445-139.895-137.383-111.313-176.312 28.093-38.262 121.483-23.634 210.182 32.369l-94.449 110.89 119.757-140.598Z"/><path fill="url(#h)" d="M671.974 319.448c6.005 3.896 7.439 11.731 3.205 17.498-3.691 5.026-10.469 6.824-16.124 4.624l-97.371 155.126c-.206.328-.424.649-.654.962-5.251 7.151-15.542 9.031-22.986 4.2a15.91 15.91 0 0 1-.952-.668c-7.044-5.337-8.072-15.161-2.295-21.943L654.554 338.65c-4.193-4.192-4.809-10.788-1.118-15.814 4.234-5.768 12.534-7.284 18.538-3.388Z"/><path fill="url(#i)" d="M466.753 572.163A15 15 0 0 1 481.64 559h41.981a15 15 0 0 1 14.77 12.384l22.49 127c1.627 9.188-5.44 17.616-14.771 17.616h-80.145c-9.013 0-15.991-7.892-14.887-16.837l15.675-127Z"/><path fill="#76BCFF" d="M491 585.5c0 3.315 1.37 6.495 3.808 8.839 2.438 2.344 5.744 3.661 9.192 3.661 3.448 0 6.754-1.317 9.192-3.661 2.438-2.344 3.808-5.524 3.808-8.839 0-3.315-1.37-6.495-3.808-8.839-2.438-2.344-5.744-3.661-9.192-3.661-3.448 0-6.754 1.317-9.192 3.661-2.438 2.344-3.808 5.524-3.808 8.839Z"/><path fill="#6CB8FF" d="M753.454 221.204c-23.409-17.901-52.376-26.037-81.93-23.132-4.487.33-7.743 4.454-7.413 8.941.548 4.659 4.673 7.915 9.332 7.367 23.75-2.251 47.486 4.047 66.936 17.794l13.075-10.97Zm-28.961 24.3c-14.476-8.945-31.284-13.075-48.546-11.542-4.491.336-7.742 4.454-7.367 9.333.33 4.486 4.454 7.742 8.941 7.413 11.556-1.077 23.087 1.148 33.349 6.227l13.623-11.431Zm5.695 26.227 12.722-10.675c10.022 11.436 16.571 25.503 18.962 40.736.716 4.446-2.316 8.737-6.975 9.286-2.33.274-4.756-.23-6.49-1.598-1.521-1.201-2.741-3.22-3.188-5.331-1.891-12.241-7.087-23.402-15.031-32.418Zm-33.289-3.074a46.587 46.587 0 0 0-16.895-1.909 8.273 8.273 0 0 0-7.632 8.768 8.27 8.27 0 0 0 7.303 7.594l17.224-14.453Zm8.285 24.054 12.73-10.681c5.872 6.492 9.815 14.477 11.292 23.213.721 4.44-2.316 8.737-6.756 9.458-2.498.488-4.924-.016-6.658-1.385-1.521-1.2-2.522-3.047-2.969-5.158a30.17 30.17 0 0 0-7.639-15.447Zm52.961-44.438 12.715-10.669c14.512 16.824 23.888 37.518 27.12 59.938.716 4.446-2.535 8.565-6.981 9.281a7.832 7.832 0 0 1-6.484-1.593c-1.521-1.201-2.741-3.22-3.188-5.331a98.667 98.667 0 0 0-23.182-51.626Z" clip-rule="evenodd" fill-rule="evenodd"/><path fill="#74BCFF" d="M767.513 214.199a8.15 8.15 0 0 1 10.476 12.485l-99.08 83.135a8.149 8.149 0 0 1-10.476-12.485l99.08-83.135Z"/><ellipse fill-opacity=".1" fill="#7D7D7D" ry="15.5" rx="56.5" cy="736.5" cx="415.5"/><path fill="url(#j)" d="m424.233 578.29 23.796 1.552-1.576 24.166-23.796-1.552 1.576-24.166Z"/><path fill="url(#k)" d="M428.34 586.203c-12.957-2.359-21.253-16.394-18.53-31.347 2.723-14.953 15.435-25.161 28.391-22.802 12.957 2.36 21.253 16.395 18.53 31.348-2.723 14.952-15.434 25.161-28.391 22.801Z"/><path fill="url(#l)" d="M440.693 563.215c-1.18-1.011-2.63-2.158-4.24-3.42-6.943-4.984-14.577-7.844-19.586-9.72-2.981-1.117-5.032-1.885-5.456-2.546-.918-1.431.884-13.734 9.2-19.793 1.609-1.433 3.49-2.681 5.54-3.781 25.25-11.013 40.791 8.119 42.901 10.716.13.16.209.257.236.281.045.281.089.561.131.839a38.388 38.388 0 0 1 2.901 3.802c.154.227.247.365.279.392 3.482 23.749-3.763 31.824-12.604 37.996-6.29 4.107-11.039 2.84-11.862 2.621-.099-.027-.141-.038-.121-.023 0 0-3.785-1.975-4.251-5.654 2.923 1.539 10.931-1.994 9.149-11.011-3.389-6.91-8.785-2.796-11.236-.928-.257.196-.482.367-.668.499a14.079 14.079 0 0 0-.264-.289l-.033.024-.003.007a.154.154 0 0 1-.013-.012Z" clip-rule="evenodd" fill-rule="evenodd"/><path fill="#FEE4C3" d="m382.844 747.669-10.076-.761-1.016 13.434 10.077.762z"/><path fill="#7B7B7B" d="M358.373 765.884c.487 4.625 6.115 4.436 13.515 3.656 7.4-.781 15.309-1.615 16.454-6.816-.054.228 1.321-3.526-4.233-8.021 0 0-4.671 3.88-11.724 1.236-6.401 1.975-14.376 6.5-14.012 9.945Z"/><path fill="#FEE4C3" d="m362.142 736.09-10.08-.717-.955 13.44 10.08.716z"/><path fill="#7B7B7B" d="M335.98 756.028c.549 4.618 6.174 4.355 13.563 3.477 7.389-.878 15.285-1.817 16.362-7.032-.051.228 1.275-3.544-4.339-7.965 0 0-4.619 3.941-11.706 1.391-6.374 2.059-14.289 6.689-13.88 10.129Z"/><path fill="url(#m)" d="M423.025 591.506s-12.197 2.378-18.323 9.478c-10.095 11.704-18.333 33.192-18.333 33.192s-1.488 6.706-8.31 15.444c-7.422 9.505-9.697 10.472-9.697 10.472s10.322 5.845 8.036 5.948c-2.789.126-14.637 7.854-14.637 7.854l29.81 10.174s-23.985-2.906-10.638-6.379c9.969-2.597 15.42-12.975 15.42-12.975l26.672-73.208Z" clip-rule="evenodd" fill-rule="evenodd"/><path fill="url(#n)" d="M422.864 590.004c7.643 12.106 18.898 6.382 23.57 2.007.555.088 4.356 2.66 8.677 9.884 6.749 11.284 12.97 62.819 5.035 101.517-25.877-1.802-88.816 1.135-85.102-5.095 4.642-7.787 16.636-62.116 20.926-78.476 1.707-6.512 12.787-26.947 26.894-29.837Z"/><path fill="#DCDCDC" d="M458.085 703.055s-4.611 30.699-18.799 33.293c0 0-24.088 7.314-39.292-25.184l-12.988 38.443a2.822 2.822 0 0 1-1.034 1.407 2.487 2.487 0 0 1-1.609.453 43.922 43.922 0 0 1-2.485-.246 39.068 39.068 0 0 1-7.205-1.559 20.029 20.029 0 0 1-6.992-3.742 11.865 11.865 0 0 1-1.54-1.61s-.666-.186-1.748-.519c-.761-.244-1.755-.545-2.853-.897-2.188-.713-4.811-1.612-7.096-2.524a15.77 15.77 0 0 1-5.217-2.821c-1.903-2.411-10.581-100.85 18.479-107.006 0 0 6.968-.843 13.028 9.432.079.131.162.271.242.41a9.07 9.07 0 0 0 1.095-.22c1.593-.422 3.565-1.231 3.565-1.231s10.753-10.984 19.576 2.037c8.822 13.021 19.517 56.419 21.523 59.697l31.35 2.387Z"/><path fill="#D5D5D5" d="M383.294 639.867c-.994 6.499-13.822 97.961-15.523 106.087a12.03 12.03 0 0 1-1.664-1.606s-.725-.18-1.902-.505l17.483-103.44 1.606-.536Z"/><path fill="#FB955B" d="M419.171 591.231s1.926-1.401 3.59-1.138c7.548 10.374 18.679 5.747 23.552 2.009.184-.147 1.664.262 3.065 2.188-16.738 11-27.112 2.544-30.207-3.059Z"/><path fill="url(#o)" d="M375.872 660.427c-1.707 3.361-5.388 2.142-11.052-.075-5.665-2.217-11.272-5.458-9.68-9.525 1.591-4.067 8.421-5.562 14.086-3.345 13.488-2.167 18.446 11.343 6.646 12.945Z"/><path fill="url(#p)" d="M417.81 590.001c-11.311-9.752-37.951 8.545-53.55 18.385-8.052 5.08-36.942 29.218-29.631 38.913 5.849 7.757 14.102 11.067 28.56 12.316l6.783-12.316c-8.384-6.813-8.349-4.272-13.238-8.127.89-.719 3.602-7.147 11.275-8.652 8.389.536 61.582-28.738 49.801-40.519Z"/><path fill="url(#q)" d="M379.941 652.699c1.602-3.411 5.319-2.308 11.049-.268 5.731 2.04 11.437 5.105 9.972 9.22-1.465 4.114-8.245 5.82-13.976 3.78-13.414 2.586-18.79-10.763-7.045-12.732Z"/><path fill="url(#r)" d="M468.031 616.479c0-18.202-14.065-20.172-18.626-21.839-2.142.536-4.212 2.142-5.89 4.284-8.988 11.469-19.168 44.422-24.521 54.687-6.486-1.766-19.596-1.609-30.203-1.564l-4.361 15.146c12.273 2.305 30.921 6.549 40.633 6.767 12.141.273 42.968-47.96 42.968-57.481Z"/><path fill="#585449" d="M411.579 541.285c12.313 6.722 16.661 8.991 32.066 18.185 23.543 14.05 25.585 13.446 30.434 4.534 8.105-17.871 2.809-35.733-13.361-43.068-16.171-7.334-40.704-4.852-49.139 20.349Z"/><ellipse fill="#585449" transform="scale(-1 1) rotate(-24.068 1052.38 1255.59)" ry="6.614" rx="25.536"/><ellipse fill="#FFE9CD" transform="scale(1 -1) rotate(-34.458 -691.41 -1003.701)" ry="7.231" rx="6.511"/><path fill="url(#s)" d="M246.983 541.321c2.071-5.654 11.636-7.263 17.502-7.059-1.498 17.564-20.155 17.197-28.637 15.901 2.795-.592 9.085-3.244 11.135-8.842Z"/><path stroke-width=".3" stroke="url(#t)" d="M262.648 536.135c-3.151 3.963-11.735 11.407-24.239 13.925"/><path stroke="url(#u)" d="M313.358 444c.781 19.496-7.152 64.307-45.13 87.587"/><path stroke="url(#v)" d="M281.992 468.265c-.88 11.113-3.506 24.364-13.01 25.135-6.977.566-2.014-8.936 1.816-5.646 3.83 3.289 1.252 15.43-17.79 18.982"/><path stroke="url(#w)" d="M324.732 489.884c-1.438 9.276-7.341 29.091-19.451 34.142"/></g><defs><linearGradient gradientUnits="userSpaceOnUse" y2="890" x2="506" y1="635" x1="506" id="b"><stop stop-color="#BDDFFF"/><stop stop-opacity="0" stop-color="#fff" offset=".959"/></linearGradient><linearGradient gradientUnits="userSpaceOnUse" y2="615.257" x2="229.66" y1="754.678" x1="229.66" id="c"><stop stop-color="#5FB2FF"/><stop stop-color="#DFF0FF" offset=".789"/></linearGradient><linearGradient gradientUnits="userSpaceOnUse" y2="784.347" x2="229.661" y1="630.738" x1="229.661" id="d"><stop stop-color="#DFF0FF"/><stop stop-color="#A2D2FF" offset=".818"/></linearGradient><linearGradient gradientUnits="userSpaceOnUse" y2="802.968" x2="847.534" y1="720.042" x1="883.842" id="e"><stop stop-color="#C4E3FF" offset=".365"/><stop stop-color="#5FB2FF" offset="1"/></linearGradient><linearGradient gradientUnits="userSpaceOnUse" y2="696.911" x2="605.494" y1="778.74" x1="649.318" id="f"><stop stop-color="#97CDFF" offset=".568"/><stop stop-color="#5FB2FF" offset="1"/></linearGradient><linearGradient gradientUnits="userSpaceOnUse" y2="331.974" x2="590.881" y1="630.376" x1="671.219" id="g"><stop stop-color="#6CB8FF"/><stop stop-color="#8FC8FF" offset=".657"/></linearGradient><linearGradient gradientUnits="userSpaceOnUse" y2="480.086" x2="582.555" y1="332.056" x1="629.018" id="h"><stop stop-color="#6CB8FF"/><stop stop-color="#8FC8FF" offset=".657"/></linearGradient><linearGradient gradientUnits="userSpaceOnUse" y2="658.538" x2="454.341" y1="559" x1="564" id="i"><stop stop-color="#ACD7FF"/><stop stop-color="#8FC8FF" offset=".886"/></linearGradient><linearGradient gradientUnits="userSpaceOnUse" y2="603.232" x2="434.555" y1="582.189" x1="435.928" id="j"><stop stop-color="#FFCDA5"/><stop stop-color="#FFE8D1" offset="1"/></linearGradient><linearGradient gradientUnits="userSpaceOnUse" y2="578.865" x2="405.105" y1="532.711" x1="441.808" id="k"><stop stop-color="#FFF2DF"/><stop stop-color="#FEE0BC" offset="1"/></linearGradient><linearGradient gradientUnits="userSpaceOnUse" y2="577.621" x2="461.536" y1="535.064" x1="424.947" id="l"><stop stop-color="#777CA7"/><stop stop-color="#636681" offset="1"/></linearGradient><linearGradient gradientUnits="userSpaceOnUse" y2="713.355" x2="420.065" y1="580.488" x1="379.689" id="m"><stop stop-color="#FFE194"/><stop stop-color="#FFBF84" offset="1"/></linearGradient><linearGradient gradientUnits="userSpaceOnUse" y2="713.355" x2="420.065" y1="580.488" x1="379.689" id="n"><stop stop-color="#FFE194"/><stop stop-color="#FFBF84" offset="1"/></linearGradient><linearGradient gradientUnits="userSpaceOnUse" y2="660.769" x2="365.887" y1="646.019" x1="371.66" id="o"><stop stop-color="#FEE4C3"/><stop stop-color="#FFD1AC" offset="1"/></linearGradient><linearGradient gradientUnits="userSpaceOnUse" y2="674.003" x2="391.429" y1="574.441" x1="416.233" id="p"><stop stop-color="#FFE194"/><stop stop-color="#FFBF84" offset="1"/></linearGradient><linearGradient gradientUnits="userSpaceOnUse" y2="652.047" x2="389.911" y1="666.97" x1="384.599" id="q"><stop stop-color="#FEE4C3"/><stop stop-color="#FFD1AC" offset="1"/></linearGradient><linearGradient gradientUnits="userSpaceOnUse" y2="681.248" x2="423.438" y1="588.247" x1="456.526" id="r"><stop stop-color="#FFE194"/><stop stop-color="#FFBF84" offset="1"/></linearGradient><linearGradient gradientUnits="userSpaceOnUse" y2="529.499" x2="249.067" y1="541.083" x1="265.477" id="s"><stop stop-color="#6CB8FF"/><stop stop-color="#8FC8FF" offset=".657"/></linearGradient><linearGradient gradientUnits="userSpaceOnUse" y2="531.15" x2="256.483" y1="539.611" x1="263.774" id="t"><stop stop-color="#B2DAFF"/><stop stop-color="#88C5FF" offset="1"/></linearGradient><linearGradient gradientUnits="userSpaceOnUse" y2="504.433" x2="254.612" y1="446.069" x1="296.681" id="u"><stop stop-color="#B2DAFF"/><stop stop-color="#88C5FF" offset="1"/></linearGradient><linearGradient gradientUnits="userSpaceOnUse" y2="503.719" x2="252.29" y1="469.415" x1="266.148" id="v"><stop stop-color="#B2DAFF"/><stop stop-color="#88C5FF" offset="1"/></linearGradient><linearGradient gradientUnits="userSpaceOnUse" y2="493.982" x2="287.401" y1="487.928" x1="318.308" id="w"><stop stop-color="#B2DAFF"/><stop stop-color="#88C5FF" offset="1"/></linearGradient><clipPath id="a"><path fill="#fff" d="M0 0h1024v1024H0z"/></clipPath></defs></svg>