<svg class="icon" viewBox="0 0 1024 1024" xmlns="http://www.w3.org/2000/svg" width="64" height="64"><path d="M122.368 165.888h778.24c-9.216 0-16.384-7.168-16.384-16.384v713.728c0-9.216 7.168-16.384 16.384-16.384h-778.24c9.216 0 16.384 7.168 16.384 16.384V150.016c0 8.192-6.656 15.872-16.384 15.872zM89.6 850.432a46.98 46.98 0 0 0 47.104 47.104h750.08a46.98 46.98 0 0 0 47.104-47.104V162.304a46.98 46.98 0 0 0-47.104-47.104h-750.08A46.98 46.98 0 0 0 89.6 162.304v688.128z"/><path d="M201.728 276.992V481.28h620.544V276.992H201.728zm572.928 153.6H248.832V327.168h525.824v103.424zM201.728 542.72v204.288h620.544V542.72H201.728zm572.928 153.6H248.832V592.896h525.824V696.32z"/></svg>