<svg class="icon" viewBox="0 0 1024 1024" xmlns="http://www.w3.org/2000/svg" width="128" height="128"><path d="M917.333 469.333H106.667c-12.8 0-21.334-8.533-21.334-21.333V277.333c0-12.8 8.534-21.333 21.334-21.333h298.666V106.667c0-12.8 8.534-21.334 21.334-21.334h170.666c12.8 0 21.334 8.534 21.334 21.334V256h298.666c12.8 0 21.334 8.533 21.334 21.333V448c0 12.8-8.534 21.333-21.334 21.333zM128 426.667h768v-128H597.333c-12.8 0-21.333-8.534-21.333-21.334V128H448v149.333c0 12.8-8.533 21.334-21.333 21.334H128v128z"/><path d="M853.333 938.667H170.667c-12.8 0-21.334-8.534-21.334-21.334V448c0-12.8 8.534-21.333 21.334-21.333h682.666c12.8 0 21.334 8.533 21.334 21.333v469.333c0 12.8-8.534 21.334-21.334 21.334zM192 896h640V469.333H192V896z"/><path d="M341.333 936.533C328.533 936.533 320 928 320 915.2V746.667c0-12.8 8.533-21.334 21.333-21.334s21.334 8.534 21.334 21.334V915.2c0 12.8-8.534 21.333-21.334 21.333zm170.667 0c-12.8 0-21.333-8.533-21.333-21.333V746.667c0-12.8 8.533-21.334 21.333-21.334s21.333 8.534 21.333 21.334V915.2c0 12.8-8.533 21.333-21.333 21.333zm170.667 0c-12.8 0-21.334-8.533-21.334-21.333V746.667c0-12.8 8.534-21.334 21.334-21.334S704 733.867 704 746.667V915.2c0 12.8-8.533 21.333-21.333 21.333z"/></svg>