<svg class="icon" viewBox="0 0 1024 1024" xmlns="http://www.w3.org/2000/svg" width="64" height="64"><path d="M122.368 165.888h778.24c-9.216 0-16.384-7.168-16.384-16.384v713.728c0-9.216 7.168-16.384 16.384-16.384h-778.24c9.216 0 16.384 7.168 16.384 16.384V150.016c0 8.192-6.656 15.872-16.384 15.872zM89.6 850.432a46.98 46.98 0 0 0 47.104 47.104h750.08a46.98 46.98 0 0 0 47.104-47.104V162.304a46.98 46.98 0 0 0-47.104-47.104h-750.08A46.98 46.98 0 0 0 89.6 162.304v688.128z"/><path d="M268.733 307.732v49.152h-50.176v-49.152zm.082 158.29v49.152H218.64v-49.152zm.087 158.3v49.153h-50.176v-49.152zM533.565 307.61v49.152H302.653V307.61zm.082 158.29v49.152H302.735V465.9zm.087 158.295v49.152H302.822v-49.152zM678.912 460.8h46.08v255.488h-46.08z"/><path d="m568.212 643.886 32.579-32.584 133.591 133.591-32.578 32.584z"/><path d="m669.338 744.653 133.59-133.596 32.584 32.583-133.59 133.591z"/></svg>