<svg xmlns="http://www.w3.org/2000/svg" fill="none" height="1024" width="1024"><g clip-path="url(#a)"><ellipse fill="url(#b)" ry="127.5" rx="467" cy="762.5" cx="506"/><path fill="url(#c)" d="M230.457 615.502s-.224-.58-.529.04c-2.744 5.58-27.594 66.024-29.566 112.676 0 0-4.147 26.802 30.603 26.447 29.008-.295 28.235-25.003 28.134-33.328-.397-33.764-28.642-105.835-28.642-105.835Z"/><path fill="url(#d)" d="M229.664 784.343a1.02 1.02 0 0 1-1.017-1.016V631.754a1.02 1.02 0 0 1 1.017-1.017 1.02 1.02 0 0 1 1.016 1.017v151.573c0 .569-.457 1.016-1.016 1.016Z"/><path fill="url(#e)" d="M869.35 810.661c7.191-2.261 14.167-5.215 20.524-13.485 1.304-1.694 2.53-3.865 1.815-5.893-.538-1.526-2.095-2.505-3.676-2.754a7.511 7.511 0 0 0-1.779-.049h-.006c-.912.094-1.813.274-2.692.535l-.251.074a44.021 44.021 0 0 0-11.86 5.435 1.734 1.734 0 0 1-1.119.268 1.737 1.737 0 0 1-1.04-.496 1.792 1.792 0 0 1-.273-2.185c.374-.62.81-1.2 1.299-1.731a16.87 16.87 0 0 1 2.365-2.081c1.131-.837 2.337-1.584 3.517-2.348a97.489 97.489 0 0 0 12.431-9.531c2.773-2.507 5.486-5.289 6.804-8.813.606-1.621.882-3.49.159-5.06-1.192-2.579-4.569-3.302-7.331-2.767-4.839.941-8.705 4.54-12.133 8.128-2.843 2.981-6.029 6.281-10.114 6.464a3.526 3.526 0 0 1-2.013-.409c-1.165-.716-1.465-2.375-1.05-3.692.416-1.318 1.377-2.37 2.304-3.381 5.392-5.869 10.697-11.974 14.198-19.165 3.501-7.191 5.052-15.681 2.619-23.316-.713-2.232-1.785-4.404-3.457-6.026-1.672-1.621-4.016-2.638-6.311-2.327-3.127.417-5.482 3.094-7.067 5.859-5.445 9.486-5.112 21.11-6.646 31.976-.429 3.042-1.053 6.162-2.839 8.666a2.028 2.028 0 0 1-.627.593c-1.469.863-2.788-.878-3.34-2.355-2.178-5.845-2.723-12.53-6.622-17.368-1.489-1.842-3.595-3.381-5.942-3.366-2.866.02-5.32 2.449-6.157 5.231-.836 2.782-.335 5.804.561 8.566 1.663 5.122 4.644 9.724 8.158 13.769 1.851 2.136 3.946 4.293 4.502 7.079.17.947.099 1.922-.207 2.833a5.655 5.655 0 0 1-1.541 2.373 3.216 3.216 0 0 1-2.415.801c-.941-.087-1.792-.574-2.614-1.047-.345-.199-.69-.401-1.037-.599l-4.111-2.377c-3.485-2.016-7.69-4.076-11.318-2.34-1.851.888-3.064 2.633-3.635 4.636a10.282 10.282 0 0 0 0 5.562c1.081 3.78 7.893 14.3 10.703 17.013 3.282 3.168 14.662 16.837 39.264 9.1Z"/><path fill="url(#f)" d="M807.991 564.269c2.389-6.522 13.423-8.378 20.19-8.144-1.728 20.263-23.251 19.839-33.035 18.344 3.223-.684 10.48-3.742 12.845-10.2Z"/><path stroke-width=".3" stroke="url(#g)" d="M826.062 558.286c-3.636 4.572-13.538 13.159-27.963 16.064"/><path stroke="url(#h)" d="M884.56 452c.901 22.491-8.25 74.185-52.062 101.04"/><path stroke="url(#i)" d="M848.376 479.993c-1.015 12.819-4.045 28.105-15.008 28.995-8.049.653-2.324-10.308 2.095-6.514 4.418 3.795 1.444 17.801-20.522 21.898"/><path stroke="url(#j)" d="M897.681 504.932c-1.659 10.701-8.469 33.559-22.439 39.386"/><path fill="url(#k)" d="M435.614 493.124H275c-5.523 0-10 4.477-10 10v195.219c0 5.523 4.477 10 10 10h474c5.523 0 10-4.477 10-10V503.124c0-5.523-4.477-10-10-10H587.271c0 27.714-33.95 50.18-75.829 50.18-41.878 0-75.828-22.466-75.828-50.18Z" clip-rule="evenodd" fill-rule="evenodd"/><path fill="url(#l)" d="M365.325 366c-5.523 0-10 4.477-10 10v120.47h80.289c0 27.713 33.95 50.18 75.829 50.18 41.878 0 75.828-22.467 75.828-50.18h81.404V376c0-5.523-4.477-10-10-10h-293.35Z" clip-rule="evenodd" fill-rule="evenodd"/><path fill="#A0D1FF" d="M357.556 367.115V496.47h-89.21l89.21-129.355ZM666.444 367.115V496.47h89.21l-89.21-129.355Z"/><ellipse fill-opacity=".15" fill="#7D7D7D" ry="15.5" rx="56.5" cy="750.5" cx="387.5"/><path fill="url(#m)" d="M402.897 604.088H378.68v24.217h24.217v-24.217Z"/><path fill="#FEE0BC" d="M416.178 598.008c2.028.819 4.782-1.262 6.15-4.649 1.369-3.387.834-6.797-1.194-7.617-2.028-.819-4.781 1.263-6.15 4.65-1.368 3.387-.834 6.797 1.194 7.616ZM365.814 597.97c-2.014.855-4.803-1.178-6.23-4.54-1.427-3.363-.952-6.782 1.061-7.636 2.014-.855 4.803 1.178 6.23 4.54 1.428 3.363.952 6.782-1.061 7.636Z"/><path fill="url(#n)" d="M391.764 614.244c14.776 0 26.755-11.804 26.755-26.365 0-14.561-11.979-26.365-26.755-26.365-14.777 0-26.756 11.804-26.756 26.365 0 14.561 11.979 26.365 26.756 26.365Z"/><path fill="url(#o)" d="M399.277 545.963c1.139-1.301 1.797-2.839 1.797-4.487 0-4.681-5.312-8.476-11.866-8.476-6.553 0-11.866 3.795-11.866 8.476 0 1.917.891 3.685 2.393 5.104-22.318 6.624-25.776 33.419-14.628 43.173 4.786-14.357 47.859-14.357 52.645 0 8.63-11.506 5.589-38.573-18.475-43.79Z" clip-rule="evenodd" fill-rule="evenodd"/><path fill="url(#p)" d="M492.614 641.491c-1.695 0-7.79-2.548-10.791 2.789-3.001 5.337-5.306 11.435-1.474 13.59 3.832 2.155 10.959-1.028 13.96-6.364 11.891-6.906 11.013-18.495-1.695-10.015Z"/><path fill="url(#q)" d="M285.566 640.395c1.694.001 7.789-2.547 10.79 2.789 3.002 5.337 5.306 11.435 1.474 13.59-3.831 2.155-10.721.219-13.723-5.118-11.891-6.905-11.25-19.74 1.459-11.261Z"/><path fill="url(#r)" d="M402.77 617.776a22.139 22.139 0 0 1-1.584 1.654c-1.785 1.548-4.328 2.987-7.241 3.822-6.424 1.047-12.175-3.642-14.907-7.188-.281 0-1.452.489-3.225 1.786l-.062-.071c-1.776.673-3.454 1.64-5.03 2.827-9.32 4.015-26.357 17.617-40.618 49.703-1.755-4.389-8.055-8.323-15.135-12.744-6.594-4.117-13.863-8.657-18.768-14.379-6.781 4.069-10.736 7.346-11.866 8.476 10.736 16.952 33.746 45.77 44.074 45.77 9.898 0 17.483-4.045 22.42-9.774-1.64 20.254-3.615 41.501-5.59 46.486-2.465 6.221 41.465 6.788 67.312 4.271 12.806-.146 21.917-1.286 20.733-4.274-1.98-4.998-3.96-26.34-5.602-46.64 4.933 5.811 12.567 9.931 22.554 9.931 10.328 0 33.338-28.818 44.074-45.77-1.13-1.13-5.085-4.407-11.866-8.476-4.904 5.722-12.174 10.262-18.767 14.379-7.08 4.421-13.381 8.355-15.136 12.744-14.4-32.399-31.631-45.952-40.889-49.818a20.912 20.912 0 0 0-3.971-2.342c-.461-.33-.702-.368-.9-.37l-.01-.003Z" clip-rule="evenodd" fill-rule="evenodd"/><path fill="#5B7EFB" d="M406.021 619.52s-1.693-1.636-3.385-1.636c-9.118 8.814-19.444 2.689-23.696-1.636-.16-.169-1.693-.001-3.385 1.635 14.894 13.09 26.517 6.546 30.466 1.637Z"/><path fill="#FEE4C3" d="m348.559 750.41-2.658-11.566-13.448 2.696 2.022 10.085 14.084-1.215Z"/><path fill="#4F538F" d="M336.606 740.269c-2.665 4.166-.96 9.736.226 12-3.364 3.492-17.418 6.89-17.418-1.852 0-8.577 8.589-11.701 17.192-10.148Z"/><path fill="#FEE4C3" d="m425.513 750.41 2.657-11.566 13.448 2.696-2.021 10.085-14.084-1.215Z"/><path fill="#4F538F" d="M437.464 740.269c2.665 4.166.96 9.736-.226 12 3.364 3.492 17.418 6.89 17.418-1.852.001-8.577-8.589-11.701-17.192-10.148Z"/><path fill="#D1E2FF" d="M436.346 702.267s18.707-3.472 24.656 9.985c4.344 15.735-11.454 19.689-11.454 19.689l-12.358 2.423-5.382 18.206-43.707-8.578-43.742 8.578-5.389-18.221-12.227-2.399s-17.5-6.599-11.44-19.68c7.664-16.547 24.628-9.98 24.628-9.98l48.149 13.655 48.266-13.678Z"/><path fill="url(#s)" d="m741.617 249.415-43.238 47.632c-.546.595-1.26.875-2.119.847a2.652 2.652 0 0 1-1.257-.414 2.782 2.782 0 0 1-.72-.712l-10.612-15.158a2.316 2.316 0 0 0-2.602-.876l-13.387 4.32c-.764.265-1.504.159-2.216-.299a2.367 2.367 0 0 1-.682-.637 2.564 2.564 0 0 1-.534-1.496 2.574 2.574 0 0 1 .411-1.534l6.906-10.728a4.654 4.654 0 0 1 2.461-1.9l52.132-16.961-57.117 8.135a1.16 1.16 0 0 1-1.109-.482l-9.694-13.87c-.65-.875-.712-1.809-.154-2.809.547-.956 1.36-1.404 2.436-1.339l79.269 3.862c.49.014.917.152 1.313.406.468.302.801.706 1.008 1.2.42 1.045.236 1.984-.495 2.813Z"/><path stroke-dasharray="2 2" stroke-width="3" stroke="url(#t)" d="M646 273c-11-6-83.5 0-108 74.5-13.944 42.4-34 76.499-92 69.499"/></g><defs><linearGradient gradientUnits="userSpaceOnUse" y2="890" x2="506" y1="635" x1="506" id="b"><stop stop-color="#BDDFFF"/><stop stop-opacity="0" stop-color="#fff" offset=".959"/></linearGradient><linearGradient gradientUnits="userSpaceOnUse" y2="615.257" x2="229.66" y1="754.678" x1="229.66" id="c"><stop stop-color="#5FB2FF"/><stop stop-color="#DFF0FF" offset=".789"/></linearGradient><linearGradient gradientUnits="userSpaceOnUse" y2="784.347" x2="229.661" y1="630.738" x1="229.661" id="d"><stop stop-color="#DFF0FF"/><stop stop-color="#A2D2FF" offset=".818"/></linearGradient><linearGradient gradientUnits="userSpaceOnUse" y2="802.968" x2="847.534" y1="720.042" x1="883.842" id="e"><stop stop-color="#C4E3FF" offset=".365"/><stop stop-color="#5FB2FF" offset="1"/></linearGradient><linearGradient gradientUnits="userSpaceOnUse" y2="550.631" x2="810.395" y1="563.994" x1="829.326" id="f"><stop stop-color="#6CB8FF"/><stop stop-color="#8FC8FF" offset=".657"/></linearGradient><linearGradient gradientUnits="userSpaceOnUse" y2="552.535" x2="818.949" y1="562.297" x1="827.361" id="g"><stop stop-color="#B2DAFF"/><stop stop-color="#88C5FF" offset="1"/></linearGradient><linearGradient gradientUnits="userSpaceOnUse" y2="521.715" x2="816.79" y1="454.387" x1="865.321" id="h"><stop stop-color="#B2DAFF"/><stop stop-color="#88C5FF" offset="1"/></linearGradient><linearGradient gradientUnits="userSpaceOnUse" y2="520.892" x2="814.112" y1="481.319" x1="830.099" id="i"><stop stop-color="#B2DAFF"/><stop stop-color="#88C5FF" offset="1"/></linearGradient><linearGradient gradientUnits="userSpaceOnUse" y2="509.66" x2="854.616" y1="502.675" x1="890.271" id="j"><stop stop-color="#B2DAFF"/><stop stop-color="#88C5FF" offset="1"/></linearGradient><linearGradient gradientUnits="userSpaceOnUse" y2="713.919" x2="412.196" y1="500.93" x1="620.725" id="k"><stop stop-color="#C9E7FF"/><stop stop-color="#DEF1FF" offset="1"/></linearGradient><linearGradient gradientUnits="userSpaceOnUse" y2="550.714" x2="524.626" y1="375.23" x1="581.114" id="l"><stop stop-color="#6CB8FF"/><stop stop-color="#8FC8FF" offset=".657"/></linearGradient><linearGradient gradientUnits="userSpaceOnUse" y2="628.305" x2="390.788" y1="607.218" x1="390.788" id="m"><stop stop-color="#FFCDA5"/><stop stop-color="#FFE8D1" offset="1"/></linearGradient><linearGradient gradientUnits="userSpaceOnUse" y2="614.244" x2="391.764" y1="561.514" x1="391.764" id="n"><stop stop-color="#FFF2DF"/><stop stop-color="#FEE0BC" offset="1"/></linearGradient><linearGradient gradientUnits="userSpaceOnUse" y2="591.349" x2="390.535" y1="541.476" x1="390.903" id="o"><stop stop-color="#483029"/><stop stop-color="#9F4326" offset=".791"/></linearGradient><linearGradient gradientUnits="userSpaceOnUse" y2="643.276" x2="482.388" y1="651.092" x1="496.284" id="p"><stop stop-color="#FEE4C3"/><stop stop-color="#FFD1AC" offset="1"/></linearGradient><linearGradient gradientUnits="userSpaceOnUse" y2="643.276" x2="297.304" y1="651.092" x1="283.407" id="q"><stop stop-color="#FEE4C3"/><stop stop-color="#FFD1AC" offset="1"/></linearGradient><linearGradient gradientUnits="userSpaceOnUse" y2="614.369" x2="385.944" y1="731.303" x1="373.758" id="r"><stop stop-color="#68F" offset=".04"/><stop stop-color="#F094FF" offset="1"/></linearGradient><linearGradient gradientUnits="userSpaceOnUse" y2="271.407" x2="662.729" y1="238.815" x1="723.883" id="s"><stop stop-color="#6CB8FF"/><stop stop-color="#8FC8FF" offset=".657"/></linearGradient><linearGradient gradientUnits="userSpaceOnUse" y2="413.403" x2="534.98" y1="278.748" x1="590.113" id="t"><stop stop-color="#6CB8FF"/><stop stop-color="#8FC8FF" offset=".657"/></linearGradient><clipPath id="a"><path fill="#fff" d="M0 0h1024v1024H0z"/></clipPath></defs></svg>