<svg class="icon" viewBox="0 0 1024 1024" xmlns="http://www.w3.org/2000/svg" width="64" height="64"><path d="M671.891 190.746c-8.148 0-14.994-2.556-20.546-7.668a68.603 68.603 0 0 1-13.883-17.87 92.056 92.056 0 0 1-8.324-20.937c-1.853-7.15-2.78-13.109-2.78-17.878V.755h2.221c6.662 0 12.957.679 18.876 2.045 5.927 1.358 13.14 4.593 21.656 9.698 8.516 5.112 18.876 12.262 31.09 21.456 12.222 9.186 27.584 21.28 46.092 36.266 19.987 16.336 35.9 30.124 47.746 41.363 11.846 11.232 20.913 20.77 27.208 28.598 6.286 7.829 10.176 14.475 11.662 19.923 1.478 5.448 2.213 10.209 2.213 14.299v16.343h-163.23zm345.346 481.098c2.22 5.448 3.707 12.262 4.442 20.434.742 8.172-2.956 16-11.104 23.485-3.699 3.411-7.03 6.646-9.985 9.706-2.972 3.067-5.56 5.623-7.78 7.668a53.441 53.441 0 0 1-7.773 6.127l-94.389-85.8a354.125 354.125 0 0 0 14.994-12.263 247.858 247.858 0 0 1 13.875-11.231c8.883-7.493 18.509-10.728 28.878-9.706 10.36 1.023 18.876 3.235 25.538 6.63 7.405 3.411 15.361 9.37 23.877 17.886 8.507 8.507 14.986 17.534 19.427 27.064zM625.256 766.84c16.28 0 29.972-4.082 41.083-12.254L450.905 960.92H144.422c-14.067 0-29.428-3.754-46.092-11.24a196.102 196.102 0 0 1-46.635-29.628 170.732 170.732 0 0 1-36.09-42.385c-9.618-16-14.435-32.512-14.435-49.543V132.52c0-14.298 3.514-29.276 10.544-44.941A147.063 147.063 0 0 1 40.6 45.185 174.127 174.127 0 0 1 82.242 13.52C97.779 5.013 114.067.755 131.106.755h425.292v127.683c0 12.941 2.22 26.897 6.662 41.875a133.435 133.435 0 0 0 20.545 41.37c9.259 12.598 21.289 23.15 36.091 31.666 14.802 8.515 32.576 12.765 53.305 12.765h162.121v338.1l-152.127 145.05c8.148-10.896 12.214-22.814 12.214-35.755 0-17.702-6.846-32.855-20.546-45.453-13.692-12.597-30.163-18.9-49.415-18.9H208.831c-19.244 0-35.532 6.303-48.856 18.9-13.324 12.598-19.986 27.751-19.986 45.453 0 17.71 6.662 32.688 19.986 44.942 13.324 12.262 29.612 18.389 48.864 18.389h416.425zM208.831 383.797c-19.252 0-35.54 6.303-48.864 18.9-13.324 12.598-19.986 27.743-19.986 45.453 0 17.702 6.662 32.688 19.986 44.942 13.324 12.254 29.612 18.389 48.864 18.389h416.425c19.244 0 35.707-6.135 49.407-18.39 13.7-12.253 20.546-27.239 20.546-44.94 0-17.71-6.846-32.856-20.546-45.454-13.692-12.597-30.163-18.9-49.415-18.9H208.831zm418.638 511.749 14.434-13.285 27.767-25.53a3832.34 3832.34 0 0 0 36.642-34.222 4000.148 4000.148 0 0 1 39.973-37.28c31.833-29.285 67.74-61.973 107.721-98.064l93.278 85.802-107.72 99.085-39.974 36.77-36.641 33.71a1433.563 1433.563 0 0 0-26.098 24.508c-7.03 6.814-10.92 10.56-11.663 11.24a496.635 496.635 0 0 1-12.214 8.683c-4.441 3.059-8.882 5.615-13.324 7.66-4.441 2.045-11.287 4.593-20.546 7.66a667.015 667.015 0 0 1-28.318 8.684 576.748 576.748 0 0 1-27.759 7.15c-8.883 2.045-15.545 3.403-19.986 4.082-8.883 1.357-14.81.343-17.766-3.06-2.964-3.403-3.707-9.194-2.22-17.366.734-4.082 2.22-10.217 4.44-18.39a375.137 375.137 0 0 1 7.773-25.018l8.324-24.005c2.596-7.493 4.633-12.597 6.11-15.321a81.136 81.136 0 0 1 17.767-23.493z"/></svg>