<svg class="icon" viewBox="0 0 1024 1024" xmlns="http://www.w3.org/2000/svg" width="128" height="128"><path d="m512 81.92 372.736 215.04v430.08L512 942.08 139.264 727.04V296.96L512 81.92M512 0c-14.336 0-28.672 4.096-40.96 10.24L98.304 225.28c-24.576 14.336-40.96 40.96-40.96 71.68v430.08c0 28.672 16.384 55.296 40.96 71.68l372.736 215.04c12.288 8.192 26.624 10.24 40.96 10.24s28.672-4.096 40.96-10.24l372.736-215.04c24.576-14.336 40.96-40.96 40.96-71.68V296.96c0-28.672-16.384-55.296-40.96-71.68L552.96 10.24C540.672 4.096 526.336 0 512 0z"/><path d="M698.368 352.256 532.48 450.56c-12.288 8.192-28.672 8.192-43.008 0l-153.6-96.256c-18.432-12.288-45.056-6.144-57.344 12.288-12.288 18.432-6.144 45.056 12.288 57.344l157.696 98.304c12.288 8.192 18.432 20.48 18.432 34.816V757.76c0 22.528 18.432 40.96 40.96 40.96s40.96-18.432 40.96-40.96V557.056c0-14.336 8.192-28.672 20.48-34.816L737.28 421.888c20.48-12.288 26.624-36.864 14.336-55.296-8.192-20.48-32.768-26.624-53.248-14.336z"/></svg>