<svg class="icon" viewBox="0 0 1024 1024" xmlns="http://www.w3.org/2000/svg" width="128" height="128"><path d="M948.531 205.722c9.114 9.113 9.114 18.33 0 27.443l-91.34 91.443c-6.145 3.072-10.753 4.506-13.722 4.506h-292.66v109.67h274.33c12.186 0 18.33 6.144 18.33 18.33V640c0 12.288-6.144 18.33-18.33 18.33H550.81v347.443c0 12.185-6.041 18.227-18.227 18.227H459.47c-12.186 0-18.33-6.042-18.33-18.33V658.33H112.026c-3.072 0-7.578-1.434-13.722-4.608L6.861 562.278c-9.114-9.113-9.114-18.33 0-27.443l91.443-91.443c6.144-3.072 10.65-4.608 13.722-4.608h329.113v-109.67H130.253c-12.186 0-18.33-6.042-18.33-18.33V128c0-12.186 6.144-18.33 18.33-18.33h310.886V18.33C441.14 6.144 447.283 0 459.47 0h73.113c12.186 0 18.228 6.144 18.228 18.33v91.443h292.556c3.072 0 7.578 1.536 13.722 4.608l91.443 91.34zM806.81 475.443H118.886L45.67 548.557l73.114 73.113H806.81V475.443zm102.912-256-73.114-73.113H148.582v146.33h688.026l73.114-73.217zM477.696 109.67h36.557V36.557h-36.557v73.113zm36.557 219.444h-36.557v109.67h36.557v-109.67zm0 329.216h-36.557v329.113h36.557V658.33z"/></svg>