<svg class="icon" viewBox="0 0 1042 1024" xmlns="http://www.w3.org/2000/svg" width="128" height="128"><path d="M581.632 697.344h126.976v194.56q0 33.792-10.24 58.88t-27.136 40.96-39.424 23.552-48.128 7.68H131.072q-24.576 0-48.128-9.728t-41.472-27.136-29.184-40.96-11.264-52.224v-706.56q0-24.576 11.776-47.104t30.208-39.936 40.96-28.16 45.056-10.752H578.56q26.624 0 50.176 11.776t41.472 29.696 28.16 40.448 10.24 44.032v188.416H581.632l1.024-195.584H130.048l-1.024 713.728h452.608V697.344zm440.32-191.488q37.888 30.72 2.048 60.416-20.48 15.36-44.544 37.888t-50.176 46.592-51.712 47.616-47.104 40.96q-23.552 18.432-40.448 18.432t-16.896-24.576q2.048-14.336.512-35.84t-1.536-36.864q0-17.408-12.288-21.504t-29.696-4.096H626.688q-34.816 0-73.216-.512t-73.216-.512H375.808q-8.192 0-17.92-1.536t-17.408-6.656-12.288-14.336-4.608-23.552q0-19.456-.512-46.08t.512-47.104q0-27.648 13.312-37.888t43.008-9.216h93.184q32.768 0 70.144.512t71.168.512h100.352q25.6 1.024 43.52-4.096t17.92-22.528q0-14.336 1.024-32.256t1.024-32.256q0-23.552 12.8-29.696t32.256 9.216q19.456 16.384 45.568 38.4t52.736 45.056 52.736 45.568 47.616 39.936z"/></svg>