<svg class="icon" viewBox="0 0 1024 1024" xmlns="http://www.w3.org/2000/svg" width="128" height="128"><path d="M357.574 245.76c-49.47 0-89.573-40.69-89.573-90.887 0-50.193 40.104-90.883 89.573-90.883 49.47 0 89.573 40.69 89.573 90.883 0 50.197-40.104 90.887-89.573 90.887zm282.167 0c-50.101 0-90.713-40.69-90.713-90.887 0-50.193 40.612-90.883 90.713-90.883s90.712 40.69 90.712 90.883c0 50.197-40.612 90.887-90.712 90.887zM75.472 303.998c25.221 6.615 50.815 91.433 137.858 159.39 87.043 67.955 106.11 69.328 175.404 83.373 75.48 15.302 164.694 3.502 229.311-17.333 64.622-20.841 104.48-47.872 142.067-75.499 37.587-27.628 106.107-92.003 107.059-99.454.949-7.452-18.695 3.075-38.871 9.615-20.18 6.537-23.549 7.028-51.05 15.172-24.146 7.151-39.973 4.117-46.8-21.456-6.827-25.576 2.69-36.567 25.105-43.738 22.415-7.175 159.61-49.852 184.74-51.163 23.395-1.215 43.875 6.748 45.38 29.29 1.598 24.054 3.3 202.906-3.082 215.337s-14.063 14.404-28.426 13.988c-14.367-.417-33.632-13.183-33.707-27.723-.082-14.541 2.857-93.113-1.73-94.454s-18.2 21.292-63.123 63.734c-44.927 42.438-52.416 46.319-105.855 77.202-53.435 30.884-97.338 39.984-99.143 47.579-1.81 7.601 18.005 52.272 19.913 78.66 1.901 26.385 3.966 102.98 3.966 102.98s61.18-11.12 92.7-2.897c31.525 8.222 58.467 21.79 69.219 46.318 11.23 25.62 18.554 65.3-3.311 92.11-21.866 26.808-49.565 54.974-107.964 54.974-58.402 0-86.583-.249-112.882-19.9-26.3-19.646-24.498-36.973-24.027-50.366.471-13.398.294-23.361 10.24-75.094C626.91 666.73 583.37 606.887 581.396 606.43s-33.088 5.59-74.004 9.049c-40.909 3.464-84.384 1.14-84.384 1.14s-25.86 45.677-17.93 126.965c7.929 81.296 19.93 132.486 13.36 160.936-6.568 28.446-19.85 34.863-47.91 45.168-28.065 10.312-105.445 17.34-145.262-2.532-39.816-19.876-60.385-47.487-62.614-82.036-2.225-34.543 8.895-67.84 47.838-86.88s117.374-13.233 127.133-8.557c5.987 2.867-5.284-24.518-.84-74.5 4.55-51.2 26.457-86.729 19.34-91.023-7.113-4.294-88.122-12.517-181.37-90.143C98.122 450.23 28.855 345.412 38.32 325.737c9.466-19.674 37.151-21.739 37.151-21.739z"/></svg>