<svg class="icon" viewBox="0 0 1024 1024" xmlns="http://www.w3.org/2000/svg" width="64" height="64"><path d="M396.36 970.667a28.444 28.444 0 0 1-28.445-29.184l2.773-105.913h-71.324c-54.358 0-93.17-44.8-93.17-99.854V363.989c0-53.66 38.812-97.322 93.17-97.322H870.2c54.357 0 104.007 43.648 104.007 97.322v371.712c0 55.055-49.636 99.855-104.007 99.855H593.948l-181.02 129.777a28.345 28.345 0 0 1-16.569 5.334zm-96.968-647.111c-23.381 0-36.28 17.763-36.28 40.433v371.712c0 23.31 13.68 42.966 36.28 42.966h100.523a28.402 28.402 0 0 1 28.43 29.198l-2.048 77.895L568.22 784.014a28.403 28.403 0 0 1 16.57-5.333H870.2c22.6 0 47.12-19.67 47.12-42.965V363.989c0-22.67-23.738-40.433-47.12-40.433H299.393z"/><path d="M95.004 599.48c-6.712 0-10.723-2.36-16.142-7.167-20.807-18.418-29.084-42.61-29.084-69.945V150.656c0-53.66 38.812-97.323 93.17-97.323h570.837c54.357 0 104.007 43.648 104.007 97.323v16.455a28.444 28.444 0 0 1-56.889 0v-16.455c0-22.67-23.737-40.434-47.118-40.434H142.948c-23.382 0-36.281 17.764-36.281 40.434v371.712c0 10.894 1.422 19.84 9.913 27.364 11.761 10.41 11.505 28.416 1.08 40.163-5.632 6.329-14.805 9.586-22.656 9.586z"/><path d="M485.248 451.556H371.47a14.222 14.222 0 1 1 0-28.445h113.778a14.222 14.222 0 1 1 0 28.445zm199.111 0H542.137a14.222 14.222 0 1 1 0-28.445h142.222a14.222 14.222 0 1 1 0 28.445zm113.778 0h-56.889a14.222 14.222 0 1 1 0-28.445h56.889a14.222 14.222 0 1 1 0 28.445zm-369.778 71.11H371.47a14.222 14.222 0 1 1 0-28.444h56.89a14.222 14.222 0 1 1 0 28.445zm170.667 0H485.248a14.222 14.222 0 1 1 0-28.444h113.778a14.222 14.222 0 1 1 0 28.445zm199.11 0H655.916a14.222 14.222 0 1 1 0-28.444h142.222a14.222 14.222 0 1 1 0 28.445zM513.692 608H371.47a14.222 14.222 0 1 1 0-28.444h142.222a14.222 14.222 0 1 1 0 28.444zm199.112 0H570.58a14.222 14.222 0 1 1 0-28.444h142.223a14.222 14.222 0 1 1 0 28.444zm85.333 0h-28.445a14.222 14.222 0 1 1 0-28.444h28.445a14.222 14.222 0 1 1 0 28.444zM428.36 679.111h-56.89a14.222 14.222 0 1 1 0-28.444h56.89a14.222 14.222 0 1 1 0 28.444zm156.444 0h-99.556a14.222 14.222 0 1 1 0-28.444h99.556a14.222 14.222 0 1 1 0 28.444z"/></svg>