<svg class="icon" viewBox="0 0 1024 1024" xmlns="http://www.w3.org/2000/svg" width="128" height="128"><path d="M512 1024C229.24 1024 0 794.76 0 512S229.24 0 512 0s512 229.24 512 512-229.24 512-512 512zm215.814-682.553V235.361c0-18.569-15.747-32.814-33.269-30.038L371.28 256.592c-13.426 2.161-23.37 14.267-23.37 28.512v338.603a86.721 86.721 0 0 0-32.427-6.258c-48.538 0-87.927 39.868-87.927 89.065 0 49.22 39.367 89.088 87.927 89.088s87.882-39.822 87.882-89.02c0-1.547-.068-3.094-.137-4.641h.137V392.943l268.925-42.69v217.225a87.45 87.45 0 0 0-32.54-6.303c-48.697 0-88.064 39.867-88.064 89.065 0 49.22 39.435 89.088 88.064 89.088 48.606 0 88.064-39.868 88.064-89.088 0-2.412-.137-4.824-.273-7.259V341.515l.273-.068z"/></svg>