<svg class="icon" viewBox="0 0 1024 1024" xmlns="http://www.w3.org/2000/svg" width="64" height="64"><path d="M441.778 9.472a37.632 37.632 0 0 1 41.216-4.779 40.448 40.448 0 0 1 21.93 36.438v925.696a40.619 40.619 0 0 1-22.954 36.949 37.205 37.205 0 0 1-41.643-6.656c-.512-.512-51.2-47.36-107.69-95.232-97.024-82.347-127.062-96.853-133.376-99.243H31.921a32.597 32.597 0 0 1-31.914-33.28V238.677c0-18.346 14.336-33.28 31.915-33.28h141.824c6.485-2.304 38.4-16.298 147.712-100.181a4605.099 4605.099 0 0 0 120.32-95.744zM85.341 290.731v426.666h129.365l14.592 5.462c28.245 10.666 75.35 43.434 158.464 114.005 10.581 8.875 21.333 18.09 31.744 27.307V136.96c-15.616 12.288-31.573 24.747-46.08 35.925-92.672 70.998-143.36 103.254-171.86 113.067l-13.484 4.608H85.342zM822.11 503.723A294.4 294.4 0 0 1 677.3 759.296a59.819 59.819 0 0 1-17.494 5.632c-2.304.256-2.304.256-4.78.256a45.568 45.568 0 0 1-44.884-46.165c0-16.214 8.106-31.062 21.845-39.766a200.875 200.875 0 0 0 100.096-175.445c0-72.704-37.547-138.41-97.11-173.653a46.677 46.677 0 0 1-22.186-40.107c0-25.515 19.968-46.336 44.885-46.336 7.68 0 17.067 3.413 24.747 7.68 85.845 52.053 139.69 147.37 139.69 252.33zM753.16 72.96c9.216 0 16.64 2.901 25.77 8.619 143.105 87.381 232.79 246.698 232.79 422.314 0 175.787-90.112 335.446-233.642 422.742a45.91 45.91 0 0 1-25.6 8.448 45.397 45.397 0 0 1-44.715-46.08c0-17.494 10.496-32.939 25.26-41.387 116.564-70.827 189.695-200.619 189.695-343.723 0-143.36-73.302-273.066-189.61-343.808a46.933 46.933 0 0 1-24.662-40.96c0-25.429 19.882-46.08 44.714-46.08z"/></svg>