<svg xmlns="http://www.w3.org/2000/svg" width="774.04" height="475.137"><path d="M647.792 389.5H126.248c-11.153 0-20.228-9.074-20.228-20.229V306.5h562v62.771c0 11.155-9.074 20.229-20.228 20.229Z" fill="#e6e6e6"/><path fill="#e6e6e6" d="M321.52 379h133v95h-133z"/><path fill="#e6e6e6" d="M313.52 462h149v12h-149z"/><path d="M667.52 333h-561.5V13.882C106.02 6.228 112.247 0 119.902 0h533.737c7.654 0 13.881 6.228 13.881 13.882V333Z" fill="#3f3d56"/><circle cx="388.02" cy="7.5" r="4" fill="var(--el-bg-color)"/><path fill="var(--el-bg-color)" d="M119.02 14.5h535v301h-535z"/><circle cx="591.406" cy="196.296" r="45.614"/><path d="M774.04 474.297a.84.84 0 0 1-.84.84H0v-1.68h773.2a.84.84 0 0 1 .84.84Z" fill="#e6e6e6"/><path fill="#ffb6b6" d="m130.953 189.663-5.764 20.172 23.054 1.441-1.44-23.775-15.85 2.162zm95.777 82.347c5.47 1.868 10.869.56 12.057-2.923s-2.284-7.817-7.757-9.685a14.467 14.467 0 0 0-6.796-.71l-23.28-7.621-3.343 11 23.305 6.346a14.468 14.468 0 0 0 5.814 3.594Z"/><path d="M149.479 205.361s-14.431 17.362-6.083 24.545c8.349 7.183 45.632 33.775 45.632 33.775l14.534 2.263 3.718-14.05-32.82-24.319-24.981-22.214Z"/><path fill="#ffb6b6" d="m187.716 390.18 8.02 29.722 12.738-2.36-2.83-30.664-17.928 3.302z"/><path d="m197.623 418.015-4.718.943-3.774 12.738s6.133 2.359 6.133 7.076 2.359 8.02 11.794 7.549 10.38 0 10.38-3.775-7.077-23.588-7.077-23.588.472-8.02-5.19-7.548-7.548 6.605-7.548 6.605Z" fill="#2f2e41"/><path fill="#ffb6b6" d="m144.589 389.718.547 30.78 12.929.81 4.716-30.431-18.192-1.16z"/><path d="m147.426 419.126-4.806-.232-6.76 11.436s5.375 3.78 4.227 8.356.337 8.353 9.603 10.191c9.267 1.839 10.067 2.526 10.985-1.135.919-3.66-1.124-24.601-1.124-24.601s2.409-7.664-3.197-8.584c-5.606-.92-8.928 4.57-8.928 4.57Z" fill="#2f2e41"/><path d="m149.975 205.72-25.476-1.888-5.661 7.077s-2.83 47.648-.944 52.366.472 31.608.472 31.608l64.222-4.481-14.215-34.204.472-19.814-12.737-24.06-6.133-6.605Z"/><path d="M121.197 284.976s-10.38 15.097-6.605 23.117 29.374 54.587 29.374 54.587l-3.302 43.403 22.645-1.888 3.774-46.704-15.693-38.076 2.83-4.246 23.589 28.778 8.492 50.007 22.644-2.83L196.68 318l-14.336-28.184-61.147-4.84Z" fill="#2f2e41"/><circle cx="118.979" cy="168.082" r="8.746" fill="#2f2e41"/><circle cx="139.178" cy="181.459" r="19.048" fill="#ffb6b6"/><path d="M133.139 202.342c-2.025 1.072-7.721-2.865-9.76-8.14-1.31-3.395-4.498-2.83-6.533-7.063-1.185-2.466 2.355-4.879 1.77-7.011-1.057-3.864.27-7.32.438-7.744 1.459-3.656 3.609-3.57 5.342-7.825 1.044-2.562.375-2.862 1.252-4.173 2.532-3.782 9.879-3.926 15.06-2.137 1.793.619 6.112-2.698 9.618-.295 4.131 2.83 6.88 10.99 6.247 12.485-.384.909-2.523-.017-6.97.682-4.118.647 1.316 3.724-3.318 4.773-5.48 1.24-7.13.108-8.65 1.842-1.605 1.833-1.902 5.542-.437 7.744.727 1.093 1.665 1.478 1.547 2.239-.214 1.388-1.447.633-1.852 2.106-.47 1.713 3.433 3.96 3.094 4.477-.069.105-.36.218-4.172-1.251-1.522-.587-2.11-1.093-2.28-.906-.276.304-1.645 3.345-.09 4.64 2.42 2.013.743 2.812 1.846 4.389 1.138 1.626-.866.486-2.152 1.168Z" fill="#2f2e41"/><path d="M137.599 312.396c3.04 4.917 8.04 7.334 11.17 5.399 3.129-1.935 3.2-7.49.159-12.408a14.467 14.467 0 0 0-4.799-4.864l-13.143-20.672-9.569 6.375 13.973 19.701a14.46 14.46 0 0 0 2.209 6.469Z" fill="#ffb6b6"/><path d="M120.253 211.852s-22.173 4.246-20.286 15.097 13.799 55.068 13.799 55.068l9.79 10.98 11.794-8.493-9.907-39.628-5.19-33.024Z"/><g fill="#e6e6e6"><path d="M643.975 220.914c-.872-1.47-4.644.104-5.337-1.23-.691-1.33 2.813-3.356 4.816-7.984.36-.834 2.636-6.093.952-7.716-3.193-3.076-17.804 9.618-22.918 5.464-1.122-.912-1.906-2.732-5.302-5.686-1.351-1.176-2.168-1.707-2.959-1.51-1.122.281-1.21 1.783-2.414 4.735-1.804 4.428-2.871 4.16-3.922 7.693-.78 2.622-.603 4.147-1.52 4.444-1.3.42-2.496-2.361-4.143-2.112-1.68.254-2.697 3.493-3.018 5.917-.602 4.55 1.07 7.553 1.996 10.71 1.006 3.432 1.603 8.65-.721 16.037l-23.007 64.822c5.08-13.302 19.786-49.764 25.966-63.313 1.784-3.912 3.754-7.88 7.798-9.445 3.894-1.508 9.242-.608 16.06-2.25.796-.192 3.006-.754 3.284-2.054.23-1.074-1.07-1.674-.87-2.68.267-1.35 2.823-1.367 5.964-2.924 2.215-1.098 3.595-2.404 4.781-3.527.358-.339 5.675-5.434 4.514-7.391Z"/><path d="M553.46 255.039c-.974.003-1.29 2.309-2.144 2.264-.852-.044-.835-2.349-2.529-4.667-.305-.418-2.23-3.052-3.512-2.694-2.431.68-.417 11.514-3.931 12.825-.771.288-1.89.147-4.32.962-.968.324-1.464.572-1.595 1.017-.186.631.525 1.108 1.627 2.55 1.653 2.163 1.213 2.61 2.644 4.145 1.062 1.14 1.862 1.492 1.742 2.029-.168.759-1.879.543-2.231 1.423-.36.899.936 2.332 2.033 3.189 2.06 1.608 4.016 1.654 5.833 2.11 1.974.497 4.708 1.71 7.662 4.981l25.177 29.996c-5.063-6.331-18.715-24.07-23.582-31.012-1.405-2.005-2.784-4.116-2.386-6.553.384-2.346 2.369-4.711 3.53-8.531.135-.447.497-1.693-.06-2.205-.462-.423-1.131.042-1.568-.346-.585-.521.145-1.78.286-3.771.1-1.404-.142-2.458-.351-3.364-.063-.274-1.03-4.354-2.325-4.349Zm19.415 4.358-.586-5.234.268-.397c1.24-1.835 1.871-3.627 1.879-5.328 0-.27-.012-.54-.024-.816-.05-1.092-.114-2.45.594-4.031.396-.882 1.51-2.924 3.187-2.672.45.064.792.27 1.05.513l.12-.187c.522-.796.935-1.137 1.333-1.466a6.676 6.676 0 0 0 1.117-1.13c.217-.27.387-.507.53-.707.433-.604.999-1.324 1.997-1.312 1.067.051 1.625.933 1.996 1.517a12.62 12.62 0 0 1 1.158 2.29c.073.182.155.386.196.45.344.505 3.138.032 4.19-.14 2.365-.394 4.411-.735 5.254.756.604 1.067.155 2.477-1.374 4.304a8.53 8.53 0 0 1-1.433 1.34c.373.222.707.563.842 1.1.318 1.268-.772 2.54-3.24 3.783-.613.31-1.438.725-2.595.925a10.19 10.19 0 0 1-1.454.129 1.723 1.723 0 0 1-.214.775c-.433.797-1.335 1.176-2.695 1.085-1.496-.079-2.728-.364-3.815-.614-.95-.218-1.767-.402-2.409-.36-1.19.097-2.108 1.05-3.184 2.285l-2.688 3.142Zm2.72-31.164-4.914 1.894-.452-.158c-2.09-.734-3.983-.89-5.63-.466-.262.067-.52.148-.784.23-1.043.326-2.34.731-4.05.448-.953-.16-3.212-.72-3.392-2.405-.053-.453.06-.835.23-1.147l-.212-.068c-.902-.303-1.337-.616-1.756-.918-.322-.231-.654-.47-1.376-.794-.316-.141-.59-.245-.819-.332-.694-.266-1.534-.631-1.775-1.6-.222-1.045.49-1.809.96-2.315.84-.903 1.49-1.383 1.922-1.702.157-.115.335-.247.385-.303.402-.46-.764-3.044-1.197-4.018-.981-2.187-1.83-4.08-.602-5.273.879-.855 2.357-.779 4.512.237.67.316 1.217.697 1.66 1.046.12-.417.365-.826.85-1.093 1.146-.63 2.652.103 4.48 2.175.457.514 1.067 1.207 1.554 2.275.228.503.375.971.493 1.374.237-.053.506-.065.805.01.88.217 1.475.994 1.732 2.332.304 1.467.34 2.731.374 3.846.03.973.06 1.81.264 2.42.395 1.128 1.549 1.774 3.018 2.502l3.72 1.803Zm-2.72-15.42-.586-5.235.268-.396c1.24-1.835 1.871-3.627 1.879-5.328 0-.27-.012-.54-.024-.816-.05-1.092-.114-2.45.594-4.031.396-.883 1.51-2.925 3.187-2.672.45.063.792.27 1.05.513l.12-.187c.522-.796.935-1.137 1.333-1.466a6.676 6.676 0 0 0 1.117-1.13c.217-.27.387-.507.53-.707.433-.604.999-1.324 1.997-1.312 1.067.05 1.625.933 1.996 1.517.66 1.04.96 1.791 1.158 2.29.073.181.155.386.196.45.344.505 3.138.032 4.19-.14 2.365-.394 4.411-.735 5.254.756.604 1.066.155 2.477-1.374 4.304-.476.569-.983 1-1.433 1.34.373.222.707.563.842 1.099.318 1.269-.772 2.54-3.24 3.783-.613.311-1.438.726-2.595.925a10.19 10.19 0 0 1-1.454.13 1.723 1.723 0 0 1-.214.775c-.433.796-1.335 1.175-2.695 1.084-1.496-.078-2.728-.364-3.815-.614-.95-.217-1.767-.402-2.409-.359-1.19.096-2.108 1.05-3.184 2.285l-2.688 3.142Z"/><path d="m578.23 314.412-1.096-.687-.266-1.266.266 1.266-1.28.146c-.02-.118-.089-.391-.194-.818-.572-2.34-2.317-9.463-3.773-20.68a210.836 210.836 0 0 1-1.71-23.928c-.119-8.062.263-14.166.569-19.072.23-3.7.511-7.223.787-10.655.733-9.17 1.424-17.83.91-27.42-.114-2.14-.353-6.596-2.956-11.337-1.51-2.75-3.59-5.191-6.183-7.254l1.612-2.026c2.863 2.28 5.164 4.984 6.84 8.037 2.887 5.256 3.147 10.112 3.272 12.444.523 9.758-.175 18.503-.916 27.76-.273 3.42-.553 6.928-.783 10.613-.304 4.86-.681 10.91-.564 18.87a208.26 208.26 0 0 0 1.687 23.635c1.438 11.075 3.158 18.091 3.723 20.396.3 1.23.364 1.489.055 1.976Z"/><path d="M558.558 196.82a4.61 4.61 0 0 1-.323-.01c-2.204-.12-4.244-1.439-6.067-3.92-.854-1.168-1.291-2.5-2.163-5.156-.135-.41-.792-2.487-1.192-5.346-.261-1.867-.228-2.648.142-3.338.41-.769 1.075-1.304 1.823-1.666a1.463 1.463 0 0 1 .101-.763c.441-1.08 1.614-.938 2.248-.87.321.04.722.094 1.154.071.68-.033 1.045-.235 1.599-.538.53-.29 1.188-.652 2.164-.852 1.926-.402 3.54.144 4.072.324 2.8.932 4.179 3.108 5.776 5.628.319.506 1.412 2.345 2.133 4.868.521 1.82.448 2.628.291 3.23-.318 1.236-1.07 1.943-2.98 3.505-1.994 1.635-2.995 2.454-3.854 2.952-2 1.155-3.256 1.88-4.924 1.88Z"/></g><path d="M444.384 268.703H241.318c-8.175 0-14.826-6.651-14.826-14.826V100.325c0-8.174 6.65-14.825 14.826-14.825h203.066c8.175 0 14.825 6.651 14.825 14.825v153.552c0 8.175-6.65 14.826-14.825 14.826Z" fill="var(--el-bg-color)"/><path d="M444.384 268.703H241.318c-8.175 0-14.826-6.651-14.826-14.826V100.325c0-8.174 6.65-14.825 14.826-14.825h203.066c8.175 0 14.825 6.651 14.825 14.825v153.552c0 8.175-6.65 14.826-14.825 14.826ZM241.318 87.976c-6.81 0-12.35 5.54-12.35 12.35v153.551c0 6.81 5.54 12.35 12.35 12.35h203.066c6.81 0 12.35-5.54 12.35-12.35V100.325c0-6.81-5.54-12.35-12.35-12.35H241.318Z" fill="#3f3d56"/><circle cx="422.074" cy="100.354" r="3.714" fill="#3f3d56"/><circle cx="431.976" cy="100.354" r="3.714" fill="#3f3d56"/><circle cx="441.879" cy="100.354" r="3.714" fill="#3f3d56"/><path d="M247.536 160.39a1.859 1.859 0 0 0-1.857 1.857c0 .5.193.961.543 1.302.353.361.815.555 1.314.555h191.868a1.859 1.859 0 0 0 1.856-1.857 1.8 1.8 0 0 0-.542-1.302 1.814 1.814 0 0 0-1.314-.555H247.536Z" fill="#e6e6e6"/><path d="M404.744 159.771v4.952H247.536c-.68 0-1.3-.273-1.745-.73a2.42 2.42 0 0 1-.73-1.746 2.483 2.483 0 0 1 2.475-2.476h157.208Z"/><path d="M436.309 150.487h-24.757c-2.73 0-4.952-2.22-4.952-4.951s2.222-4.951 4.952-4.951h24.757c2.73 0 4.951 2.22 4.951 4.951s-2.221 4.951-4.951 4.951ZM274.15 124.492h-24.757c-2.73 0-4.952-2.22-4.952-4.951s2.221-4.951 4.952-4.951h24.757c2.73 0 4.951 2.22 4.951 4.951s-2.221 4.951-4.951 4.951Zm-26.614 91.602a1.859 1.859 0 0 0-1.857 1.857c0 .499.193.96.543 1.301a1.81 1.81 0 0 0 1.314.555h191.868a1.859 1.859 0 0 0 1.856-1.856 1.8 1.8 0 0 0-.542-1.302 1.814 1.814 0 0 0-1.314-.555H247.536Z" fill="#e6e6e6"/><path d="M309.429 215.475v4.951h-61.893c-.68 0-1.3-.272-1.745-.73a2.42 2.42 0 0 1-.73-1.745 2.483 2.483 0 0 1 2.475-2.476h61.893Z"/><path d="M436.309 206.19h-24.757c-2.73 0-4.952-2.22-4.952-4.95s2.222-4.952 4.952-4.952h24.757c2.73 0 4.951 2.22 4.951 4.952s-2.221 4.95-4.951 4.95Z" fill="#e6e6e6"/></svg>