<svg class="icon" viewBox="0 0 1024 1024" xmlns="http://www.w3.org/2000/svg" width="64" height="64"><path d="M53.895 916.21h53.894V107.79H53.895v808.42zm538.947 0h53.895V107.79h-53.895v808.42zm323.369-808.42v808.42h53.894V107.79h-53.894z"/><path d="M937.768 436.547c-118.568-32.336-301.81-150.905-312.59-156.294-301.81-156.295-517.389 43.115-528.167 48.505l-32.337-37.726s253.305-231.748 587.452-53.895c5.39 0 188.632 118.568 296.421 150.905l-10.779 48.505zM781.474 576.674c-53.895 0-118.569-10.78-172.463-37.727-242.527-129.347-512 10.78-517.39 10.78L70.063 501.22c10.78-5.39 296.421-156.295 565.895-10.779 129.347 70.063 296.42 10.78 296.42 10.78l16.17 48.504s-75.453 26.948-167.074 26.948zm-91.621 301.81c-75.453 0-140.127-32.337-194.021-91.62-172.464-177.853-388.043 5.389-398.821 16.168l-37.727-37.727s258.695-231.747 468.884-10.779c48.506 48.506 97.01 70.063 156.295 75.453 123.958 0 237.137-107.79 237.137-113.179l37.726 37.726S835.368 878.484 689.853 878.484z"/></svg>