<svg class="icon" viewBox="0 0 1024 1024" xmlns="http://www.w3.org/2000/svg" width="64" height="64"><path d="M503.339 42.773a8.533 8.533 0 0 1 8.469 6.699l.192 1.856v366.805A93.867 93.867 0 0 0 605.867 512h366.805c4.715 0 8.533 3.84 8.533 8.533v.15c-.106 5.674-.213 10.176-.384 13.504C969.237 783.104 763.776 981.333 512 981.333 252.8 981.333 42.667 771.2 42.667 512c0-251.627 198.016-457.003 446.72-468.8l12.096-.384 1.856-.043zm-61.739 76.48-6.144 1.131C251.435 156.117 113.066 318.251 113.066 512c0 220.33 178.603 398.933 398.934 398.933 193.984 0 355.627-138.453 391.51-321.92l1.215-6.613H605.867a164.267 164.267 0 0 1-164.182-159.061l-.085-5.206v-298.88zm149.333-69.76h.726l9.13 1.622c2.56.469 4.822.896 6.827 1.301l2.859.597c182.229 38.912 325.269 183.595 361.792 366.699l2.154 11.925a8.533 8.533 0 0 1-6.954 9.835l-1.451.128H629.333a46.933 46.933 0 0 1-46.805-43.584l-.128-3.37V58.025a8.533 8.533 0 0 1 8.533-8.533zm62.144 93.803a4.267 4.267 0 0 0-.298 1.557v222.059a4.28 4.28 0 0 0 4.266 4.267h222.08a4.267 4.267 0 0 0 3.968-5.824 400.512 400.512 0 0 0-224.49-224.47 4.267 4.267 0 0 0-5.547 2.411z"/></svg>