<svg class="icon" viewBox="0 0 1024 1024" xmlns="http://www.w3.org/2000/svg" width="64" height="64"><path d="M141.73 369.99a34.91 34.91 0 0 1 34.91 34.909v220.02a34.91 34.91 0 0 1-69.818 0V404.9a34.91 34.91 0 0 1 34.909-34.91zM847.826 46.545h-614.26A126.93 126.93 0 0 0 106.822 173.29v66.979a34.91 34.91 0 0 0 69.818 0v-66.98c0-31.37 25.553-56.924 56.925-56.924h614.26c31.372 0 56.926 25.553 56.926 56.925V850.71c0 31.372-25.554 56.925-56.926 56.925h-614.26a57.018 57.018 0 0 1-56.925-56.925v-72.75a34.444 34.444 0 0 0-30.394-33.978h83.502a34.91 34.91 0 0 0 0-69.819H84.34a34.91 34.91 0 0 0 0 69.819h52.923a34.537 34.537 0 0 0-30.395 33.978v72.75a126.836 126.836 0 0 0 126.697 126.744h614.26A126.93 126.93 0 0 0 974.57 850.71V173.29A126.93 126.93 0 0 0 847.825 46.545zm-465.5 609.14 87.83-256.139-41.611-112.733a34.91 34.91 0 0 1 32.721-46.964H639.21a34.863 34.863 0 0 1 32.721 46.964l-41.658 112.733 87.831 256.14a34.91 34.91 0 0 1-13.824 40.494l-139.636 91.928a35.002 35.002 0 0 1-39.331-.699l-130.141-91.927a34.91 34.91 0 0 1-12.847-39.796zm129.07-346.065 20.154 54.552h37.423l20.2-54.552h-77.777zm-54.551 343.971 89.32 63.07 97.14-63.954-74.984-218.67h-36.166l-75.31 219.554zM84.34 363.241h145.455a34.91 34.91 0 0 0 0-69.818H84.34a34.91 34.91 0 0 0 0 69.818z"/></svg>