<svg class="icon" viewBox="0 0 1024 1024" xmlns="http://www.w3.org/2000/svg" width="64" height="64"><path d="M844.032 112H179.968C142.464 112 112 142.464 112 180.032v663.936C112 881.536 142.464 912 180.032 912H504a8 8 0 0 0 8-8v-56a8 8 0 0 0-8-8H184V184h656v320c0 4.416 3.584 8 8 8h56a8 8 0 0 0 8-8V179.968C912 142.464 881.536 112 843.968 112zM736 512a223.936 223.936 0 1 0-89.856 179.392l195.392 195.392a8 8 0 0 0 11.264 0l33.92-33.92a8 8 0 0 0 0-11.328L691.392 646.144c29.12-38.656 44.8-85.76 44.608-134.144zM512 672a160 160 0 1 1 0-320 160 160 0 0 1 0 320z"/></svg>