<svg class="icon" viewBox="0 0 1075 1024" xmlns="http://www.w3.org/2000/svg" width="128" height="128"><path d="M574.245 912.97a243.81 243.81 0 1 1 172.422 71.411 242.274 242.274 0 0 1-172.422-71.412zm-27.088-172.4a199.485 199.485 0 1 0 199.485-199.485 199.704 199.704 0 0 0-199.46 199.485zm-2.682 207.239H112.762V45.714h828.952v480.939a289.89 289.89 0 0 0-53.37-38.595V96.914H166.107V893.27h334.556a290.914 290.914 0 0 0 43.886 54.516zm74.996-200.241 34.45-34.5 73.29 73.265L864.11 649.411l34.499 34.475-136.924 136.923.122.146-34.45 34.5zm-343.235-159.28V531.7h201.192v56.588zm0-170.667v-56.588h501.93v56.588zm0-170.666v-56.613h501.93v56.613z"/></svg>