<svg class="icon" viewBox="0 0 1024 1024" xmlns="http://www.w3.org/2000/svg" width="128" height="128"><path d="M548.868 1023.56h-73.93c-37.625 0-68.24-30.584-68.24-68.168v-44.24c0-6.667-6.974-16.162-13.324-18.13l-2.597-.93-65.095-26.909c-1.81-.977-4.55-1.544-7.526-1.544-6.396 0-11.765 2.449-14.045 4.73l-31.546 31.524c-12.838 12.844-29.95 19.914-48.182 19.914-18.232 0-35.35-7.07-48.203-19.914l-52.365-52.339c-26.443-26.663-26.438-69.87-.076-96.416l31.56-31.53c4.679-4.648 6.34-16.126 3.221-21.985l-1.303-2.76-26.52-64.58c-1.958-6.33-11.427-13.303-18.094-13.313H68.296c-37.61 0-68.21-30.61-68.21-68.245V474.8c0-37.604 30.6-68.194 68.21-68.194l44.384.046c6.63 0 16.12-6.99 18.099-13.35l.946-2.612 26.847-64.87c3.103-5.762 1.4-17.184-3.237-21.811l-31.469-31.536c-26.56-26.545-26.565-69.81.016-96.426l52.272-52.278c12.88-12.853 29.992-19.919 48.229-19.919 18.232 0 35.35 7.076 48.193 19.92l31.53 31.422c2.372 2.378 7.776 4.847 14.218 4.847 3.012 0 5.803-.573 7.67-1.57l2.878-1.355 64.538-26.417c6.335-1.958 13.298-11.442 13.298-18.12V68.21c0-37.62 30.615-68.224 68.24-68.224h73.93c37.584 0 68.148 30.605 68.148 68.224v44.368c0 6.662 7 16.152 13.375 18.125l2.633.956 64.66 26.801c1.877 1.007 4.684 1.58 7.7 1.58 6.499 0 11.908-2.475 14.193-4.77l31.515-31.505c12.91-12.853 30.033-19.914 48.254-19.914 18.243 0 35.37 7.066 48.208 19.909l52.324 52.273c12.884 12.863 19.97 29.996 19.97 48.254 0 18.247-7.07 35.395-19.954 48.259l-31.5 31.448c-4.586 4.602-6.284 16.085-3.19 21.867l1.365 2.879 26.392 64.466c1.999 6.391 11.493 13.406 18.155 13.406h44.384c37.568 0 68.137 30.59 68.137 68.194v73.991c0 37.61-30.569 68.21-68.137 68.21h-44.384c-6.662 0-16.172 6.999-18.155 13.39l-.93 2.54-26.807 64.723c-3.108 5.844-1.447 17.337 3.185 21.97l31.47 31.438c12.868 12.838 19.97 29.955 19.97 48.213.015 18.242-7.071 35.4-19.955 48.28l-52.324 52.323c-12.854 12.859-29.976 19.914-48.224 19.924-18.221 0-35.344-7.055-48.213-19.878l-31.423-31.612c-2.208-2.198-7.653-4.678-14.131-4.678-3.022 0-5.813.562-7.654 1.575l-3.006 1.41-64.503 26.377c-6.39 2-13.405 11.494-13.405 18.145v44.241c-.005 37.589-30.57 68.173-68.153 68.173zM413.375 833.867c31.899 10.676 55.765 43.602 55.765 77.285v44.24c0 3.093 2.653 5.721 5.793 5.721h73.93c3.032 0 5.7-2.669 5.7-5.72v-44.241c0-33.637 23.877-66.568 55.786-77.285l59.543-24.454c10.619-5.378 22.91-8.216 35.687-8.216 22.378 0 43.632 8.37 58.3 22.992l31.423 31.607c2.562 2.515 5.4 2.659 8.13-.077l52.308-52.308c1.385-1.386 1.677-2.991 1.661-4.1 0-1.1-.28-2.685-1.646-4.04l-31.484-31.469c-23.815-23.8-30.078-63.883-14.94-93.977l24.5-59.573c10.737-31.848 43.663-55.694 77.28-55.694h44.383c3.037 0 5.69-2.7 5.69-5.762V474.8c0-3.063-2.658-5.752-5.69-5.752h-44.383c-33.632 0-66.563-23.861-77.28-55.755l-24.5-59.548c-15.108-29.996-8.875-70.034 14.863-93.88l31.561-31.5c1.355-1.364 1.646-2.975 1.646-4.084 0-1.1-.28-2.7-1.646-4.065l-52.324-52.278c-2.73-2.73-5.475-2.69-8.231.03l-31.423 31.424c-14.607 14.663-35.907 23.1-58.398 23.1-12.71 0-24.976-2.813-35.585-8.145L610.35 189.85c-31.909-10.685-55.785-43.611-55.785-77.274V68.21c0-3.027-2.715-5.772-5.701-5.772h-73.93c-3.088 0-5.793 2.694-5.793 5.772v44.368c0 33.698-23.861 66.625-55.755 77.285l-59.512 24.485c-10.599 5.337-22.844 8.144-35.554 8.144-22.445 0-43.719-8.43-58.377-23.145l-31.484-31.387c-2.792-2.766-5.45-2.73-8.16-.016l-52.242 52.247c-2.204 2.204-2.22 5.941-.005 8.145l31.423 31.5c23.845 23.753 30.154 63.827 14.954 93.926l-24.495 59.573c-10.696 31.904-43.622 55.765-77.284 55.765l-44.384-.046c-3.093 0-5.731 2.633-5.731 5.752v73.925c0 3.083 2.69 5.798 5.757 5.798h44.353c33.678.046 66.542 23.907 77.202 55.754l24.582 59.543c15.154 30.165 8.82 70.285-15.052 94.023l-31.422 31.413c-2.117 2.132-2.102 6.023.107 8.242l52.247 52.237c2.664 2.669 5.399 2.7 8.104 0l31.53-31.515c14.612-14.623 35.835-23.023 58.203-23.023 12.752 0 25.027 2.843 35.631 8.216l59.6 24.45zm98.594-106.114c-119.142 0-216.074-96.907-216.074-216.034 0-119.122 96.927-216.029 216.074-216.029 119.117 0 216.044 96.907 216.044 216.029 0 119.127-96.927 216.034-216.044 216.034zm0-369.61c-84.708 0-153.622 68.888-153.622 153.576 0 84.682 68.914 153.581 153.622 153.581 84.688 0 153.592-68.899 153.592-153.581 0-84.688-68.9-153.577-153.592-153.577z"/></svg>