<svg class="icon" viewBox="0 0 1024 1024" xmlns="http://www.w3.org/2000/svg" width="64" height="64"><path d="M246.8 187.9h88.6l-1.6-9.2-1.4-.8-.2-6-.2-1c.6-23.1 9.7-42.1 27.6-56.8 3.1-2.5 6-4.8 8.5-6.7h2.1l.6-1 2.1.2.8-1.4c3.7-1 7-1.7 10.1-2.3H246.6l.2-36.6-67.9 65.3c-7.7 7.5-7.8 19.8-.1 27.3l67.5 65.6.5-36.6zm247.3-69c3.3 2.9 6.4 6.3 9.9 11l4.9 7.5 12.4 47.9h82.8l.2 36.8 67.5-65.6c7.7-7.5 7.7-19.8-.1-27.3l-67.9-65.3.2 36.6H458c13.2 2.3 25.2 8.4 36.1 18.4zM784.9 531c-.8 0-1.4-.9-1.7-1.4-11.7-23.6-26.7-45.5-44.9-64.8-21.3-22.3-51.7-39.1-83.1-43.8l-.7-.5-22.6-.9-14.3-23.6c-2.1-3.5-5-6.6-8.3-9.4-19.4-16.9-42.2-25.7-68.4-26.4l-23.1 4.6-.7-1.9-.7-.5L453.9 139c-10.1-34.9-27.4-34.9-46.1-31.7 0 0-38.1 5.4-30.8 45.8l62 332.4c.7 4 1.2 7.8 1.1 11.7.1 17.8-5.7 33.2-17.4 47-3 4.1-8.2 7.4-11.5 7.9-22.2 3.5-41.7-1.6-58.9-15.4-21.7-16.2-37.1-50.3-52-72.1-8.4-12.3-15.4-27.8-25.7-39-18.7-20.3-59.5-35.4-83-16.3-7.7 6.2-15.6 22.8-8.7 31.8 10.1 13.2 22.8 27.8 29.6 41.4 5.9 11.7 10.6 24.5 14.9 37.9 3 9 5.2 30.3 11.7 36.1 7 6.2 12.3 20.8 17.5 28.1 12.3 17.4 28 38.3 35.8 58.4 21.9 32.9 31.9 74 57.9 106.5 30.1 37.7 61.5 72.5 106.4 94.8 16.7 9.4 29.5 21.8 38.5 37.9l15.4 78.3c58.4-10.7 293-50 318.2-55.1l-15.4-67.2-.7-.8c5.2-16.9 9.8-34.3 14.5-51.6 3.6-13.7 5.6-27.6 6.2-41.6 1.8-37 3.3-74.2 5-111.3.1-6.6.8-13.3 1.9-19.7 2.7-21.5-9.6-79.9-55.4-82.2z"/></svg>