<svg class="icon" viewBox="0 0 1024 1024" xmlns="http://www.w3.org/2000/svg" width="64" height="64"><path d="M832 128H128C57.344 128 0 185.344 0 256v576c0 70.656 57.344 128 128 128h704c70.656 0 128-57.344 128-128V256c0-70.656-57.344-128-128-128zM688.448 571.84 368.512 763.328c-5.12 3.008-10.816 4.544-16.512 4.544-5.44 0-10.88-1.344-15.744-4.16A31.83 31.83 0 0 1 320 735.936V352.96c0-11.52 6.208-22.08 16.256-27.776 9.984-5.696 22.4-5.504 32.256.384l319.936 191.488A31.902 31.902 0 0 1 704 544.448a31.823 31.823 0 0 1-15.552 27.392z"/></svg>