<svg class="icon" viewBox="0 0 1024 1024" xmlns="http://www.w3.org/2000/svg" width="64" height="64"><path d="M512 0c282.752 0 512 229.248 512 512s-229.248 512-512 512S0 794.752 0 512 229.248 0 512 0zm46.848 622.25-5.803 3.926-46.08 34.645A147.37 147.37 0 0 1 315.35 648.32l-6.058-6.315a73.301 73.301 0 0 0-86.102-16.768l-6.101 3.286-94.848 57.301A426.752 426.752 0 0 0 512 938.667c176.81 0 328.49-107.52 393.216-260.779l-21.547 12.843a171.093 171.093 0 0 1-221.952-40.96l-6.826-9.131a72.79 72.79 0 0 0-96.043-18.39zM512 85.334C276.352 85.333 85.333 276.352 85.333 512c0 31.061 3.328 61.397 9.643 90.581l77.995-47.104a158.635 158.635 0 0 1 199.509 29.227c20.053 22.144 52.864 26.581 77.952 11.435l5.248-3.542 46.08-34.645a158.08 158.08 0 0 1 221.397 31.403l2.816 3.882a85.76 85.76 0 0 0 107.478 27.734l6.528-3.499L928 564.907c2.56-1.494 5.12-2.688 7.808-3.627 1.92-16.128 2.859-32.597 2.859-49.28 0-235.648-191.019-426.667-426.667-426.667z"/></svg>