<svg class="icon" viewBox="0 0 1024 1024" xmlns="http://www.w3.org/2000/svg" width="64" height="64"><path d="M141.074 906.496h741.852c89.581 0 134.583-44.562 134.583-132.846V250.331c0-88.283-45.002-132.845-134.583-132.845H141.074c-89.143.018-134.583 44.16-134.583 132.845V773.67c0 88.704 45.44 132.845 134.583 132.845zm-65.572-652.69c0-44.58 23.99-67.292 66.852-67.292h739.292c42.423 0 66.852 22.711 66.852 67.292v119.15H75.502zm806.144 583.68H544.347V434.213h404.151v336c0 44.58-24.43 67.291-66.852 67.291zm-739.292 0c-42.861 0-66.852-22.711-66.852-67.292V434.213h404.132v403.291z"/></svg>